<?xml version="1.0" standalone="no"?>
<!DOCTYPE svg PUBLIC "-//W3C//DTD SVG 20010904//EN"
 "http://www.w3.org/TR/2001/REC-SVG-20010904/DTD/svg10.dtd">
<svg version="1.0" xmlns="http://www.w3.org/2000/svg"
 width="314.000000pt" height="462.000000pt" viewBox="0 0 314.000000 462.000000"
 preserveAspectRatio="xMidYMid meet">

<g transform="translate(0.000000,462.000000) scale(0.100000,-0.100000)"
fill="#000000" stroke="none">
<path d="M40 2825 l0 -1596 988 4 c891 2 992 4 1042 20 84 25 187 80 270 142
92 69 96 71 118 51 10 -8 38 -26 63 -39 25 -13 45 -32 47 -43 2 -15 1 -16 -6
-5 -8 11 -17 9 -46 -14 -20 -15 -36 -30 -36 -34 0 -3 19 -21 41 -40 33 -27 39
-30 29 -12 -12 23 0 51 22 51 6 0 23 9 39 20 15 12 54 28 86 36 32 8 70 21 86
29 23 12 31 11 57 -1 17 -9 30 -20 30 -25 0 -5 26 -21 58 -35 l57 -26 -185
-67 -185 -67 -40 37 c-22 20 -56 50 -75 67 l-36 30 -79 -60 c-68 -52 -80 -65
-80 -90 0 -24 -6 -32 -32 -43 -37 -16 -42 -24 -13 -22 11 1 20 5 20 9 0 14 18
8 24 -8 6 -16 -9 -37 -31 -45 -7 -2 -2 -9 12 -15 19 -9 25 -9 29 3 3 8 1 11
-4 8 -6 -3 -10 -1 -10 4 0 17 15 13 35 -9 15 -16 15 -20 3 -15 -12 5 -14 1
-10 -22 3 -15 11 -37 18 -48 11 -17 11 -25 -1 -48 -17 -34 -16 -65 5 -97 18
-27 16 -65 -3 -53 -6 3 -1 -10 12 -30 14 -23 18 -37 11 -37 -8 0 -7 -9 4 -28
23 -38 -87 79 -207 221 -55 64 -103 117 -107 117 -14 0 -177 -129 -199 -157
-153 -196 -169 -239 -178 -470 l-6 -153 376 0 c208 0 377 4 377 8 0 4 -6 14
-12 22 -7 8 -2 6 11 -5 l24 -20 -13 25 c-14 27 -172 236 -215 285 -28 31 -25
19 6 -26 20 -29 16 -39 -23 -56 -32 -14 -35 -25 -13 -43 17 -14 20 -30 6 -30
-5 0 -11 9 -14 19 -4 18 -9 19 -41 9 -28 -9 -42 -8 -61 2 -33 18 -32 29 10 66
l36 32 -37 6 c-43 9 -49 4 -32 -23 10 -16 10 -23 0 -33 -19 -19 -40 6 -22 27
10 12 10 15 -4 15 -9 0 -16 5 -16 10 0 6 6 10 14 10 22 0 30 19 16 35 -15 18
-55 21 -44 3 4 -7 3 -8 -4 -4 -7 4 -12 13 -12 21 0 20 46 14 63 -9 14 -20 47
-17 47 4 0 6 -4 9 -9 6 -5 -3 -14 1 -21 9 -10 12 -9 15 8 15 12 0 25 -7 30
-16 7 -12 11 -13 16 -5 4 7 2 19 -5 27 -13 15 -60 14 -102 -2 -9 -3 -16 3 -20
18 -3 13 -12 41 -20 63 -8 22 -17 55 -21 73 -5 30 -4 32 10 18 25 -26 27 -18
3 16 -15 20 -19 33 -12 35 7 3 10 12 7 21 -8 26 65 -57 314 -355 l227 -273
124 0 124 0 -19 22 c-10 13 -58 66 -106 119 -49 53 -88 101 -88 106 0 11 193
94 223 96 13 1 31 -18 58 -62 21 -36 39 -69 39 -73 0 -5 -16 -16 -35 -24 -19
-8 -35 -19 -35 -24 0 -15 43 -22 70 -12 14 5 36 6 49 3 22 -6 21 -7 -14 -24
-35 -17 -37 -19 -19 -32 25 -19 34 -19 34 0 0 8 5 15 10 15 6 0 10 -4 10 -10
0 -6 9 -6 26 0 14 6 39 10 55 10 l29 0 0 269 0 269 -27 6 c-79 19 -133 38
-133 46 0 5 36 53 81 106 45 52 79 97 77 100 -6 5 -98 -92 -98 -103 0 -5 -16
-24 -35 -43 l-34 -33 -33 26 c-18 14 -60 50 -92 80 l-60 54 140 50 c76 28 156
56 177 63 l37 12 0 89 c0 64 -3 89 -12 89 -7 1 -31 17 -53 37 -27 24 -32 32
-15 23 14 -7 33 -19 42 -28 16 -14 18 -13 18 2 0 9 5 14 10 11 6 -3 10 3 10
15 0 12 -4 18 -10 15 -6 -4 -10 6 -9 22 0 25 1 26 9 8 6 -14 9 -2 9 41 l1 61
-54 -16 c-43 -12 -58 -22 -69 -46 -25 -52 -63 -90 -119 -117 -109 -53 -216
-46 -311 22 -136 97 -135 285 1 371 59 37 102 49 177 49 80 -1 123 -17 200
-74 8 -6 39 11 93 50 l81 59 1 753 c0 413 -4 752 -8 752 -4 0 -13 -5 -19 -11
-7 -7 -17 3 -33 35 -12 26 -41 66 -63 89 -80 82 -89 96 -115 173 -15 42 -32
79 -39 81 -6 2 -20 -11 -29 -29 l-18 -33 -9 40 c-5 22 -11 47 -14 55 -3 8 -7
25 -9 38 -9 73 -27 132 -39 132 -8 0 -11 -7 -8 -20 3 -11 0 -20 -6 -20 -18 0
-12 -30 7 -31 9 0 2 -6 -17 -13 -19 -7 -38 -22 -42 -34 -5 -12 -12 -22 -16
-23 -4 0 -18 -2 -31 -3 -12 -2 -35 -13 -50 -27 -15 -13 -31 -27 -37 -32 -6 -5
-4 -11 5 -17 12 -8 11 -10 -5 -10 -11 0 -31 -8 -44 -17 -14 -9 -21 -11 -17 -5
4 7 3 12 -2 12 -6 0 -13 15 -16 34 -4 19 -13 36 -20 39 -19 7 -56 -34 -56 -61
0 -12 -15 -37 -32 -56 -18 -18 -40 -44 -49 -57 -15 -22 -23 -24 -85 -22 -38 1
-93 5 -121 8 l-53 6 -1 -38 -2 -38 -6 40 c-5 34 -10 41 -40 49 -30 8 -36 7
-52 -13 l-19 -23 0 21 c0 15 -4 20 -12 15 -14 -9 -36 -12 -83 -15 -31 -1 -150
-53 -161 -70 -3 -6 -6 -67 -7 -136 -1 -70 -1 -119 1 -110 6 30 97 28 105 -3 7
-27 -9 -101 -23 -110 -7 -4 -9 -13 -6 -19 4 -6 3 -11 -3 -11 -5 0 -14 7 -19
16 -5 9 -12 15 -15 15 -20 -3 -25 1 -31 24 -5 19 -13 25 -35 25 -22 0 -39 -11
-68 -45 -21 -25 -42 -45 -46 -45 -9 0 47 84 75 112 17 17 17 18 -2 18 -15 0
-20 7 -21 28 l0 27 -11 -25 c-6 -14 -14 -43 -17 -65 -6 -39 -7 -40 -46 -38
-43 3 -56 16 -53 53 3 21 9 26 38 28 19 2 39 7 43 11 5 5 11 42 13 82 11 155
13 142 -28 162 -23 11 -43 15 -52 10 -16 -9 -86 -103 -86 -115 0 -5 16 -8 35
-8 33 0 35 -2 35 -32 0 -65 -9 -78 -51 -78 -38 0 -39 1 -39 35 0 36 -13 47
-24 20 -3 -8 -10 -15 -16 -15 -26 0 -19 35 17 93 51 82 57 97 35 97 -9 1 -2 7
16 15 18 8 35 21 38 29 9 23 32 27 71 11 63 -26 66 -24 100 83 18 53 39 124
49 157 9 33 22 67 28 75 20 24 64 241 49 239 -4 0 -26 -23 -48 -51 -39 -51
-82 -79 -160 -108 -82 -29 -290 -141 -323 -172 -20 -20 -32 -41 -30 -53 2 -11
-5 -27 -15 -35 -13 -11 -20 -37 -25 -92 l-7 -76 -58 64 -59 64 44 1 c24 0 37
3 31 6 -7 2 -13 14 -13 24 0 11 4 18 9 15 11 -7 21 42 21 100 l0 44 -42 0
c-23 0 -39 2 -36 5 3 3 38 6 77 6 l71 0 0 32 c0 27 2 29 12 14 27 -35 55 13
57 97 2 84 11 84 11 0 1 -57 3 -66 12 -49 7 11 18 26 25 33 7 7 13 29 13 48 0
22 5 34 13 33 47 -6 57 1 58 39 l1 37 9 -32 c5 -18 12 -33 15 -33 16 0 39 38
45 74 l6 41 2 -37 c1 -29 5 -38 19 -37 10 0 12 3 5 6 -14 5 -18 24 -5 22 23
-4 32 5 40 44 l10 42 1 -40 c1 -22 5 -35 9 -29 4 6 15 13 25 17 11 4 17 17 17
37 0 28 -3 30 -37 31 -31 1 -34 3 -13 8 14 3 -15 8 -70 12 -72 4 -46 6 107 7
159 2 201 -1 198 -11 -8 -18 51 -84 91 -103 19 -9 39 -25 44 -35 8 -15 3 -21
-36 -41 -58 -29 -94 -70 -95 -111 0 -18 -3 -26 -6 -19 -7 18 -21 15 -28 -8 -4
-12 -1 -27 5 -35 10 -12 20 -7 58 32 25 25 48 41 50 34 3 -8 9 -8 23 0 23 12
40 4 33 -15 -3 -7 -16 -12 -29 -10 -21 2 -28 -5 -45 -43 -11 -26 -27 -74 -35
-107 -9 -34 -25 -87 -37 -119 -22 -63 -17 -85 12 -49 10 12 21 22 25 22 4 0
19 9 33 21 30 23 84 19 115 -9 16 -14 19 -14 27 -2 6 8 12 31 15 50 3 19 10
49 15 66 6 17 10 41 10 55 0 22 16 89 35 148 l7 23 -100 -7 c-55 -4 -107 -3
-114 1 -8 6 35 11 107 14 70 3 120 9 119 15 0 10 -74 70 -96 78 -17 6 0 37 28
52 11 6 63 34 117 63 77 41 107 52 143 52 38 0 45 -3 40 -15 -5 -14 -4 -14 16
0 44 30 52 15 14 -24 -21 -22 -40 -51 -41 -65 -2 -14 -19 -45 -38 -68 -19 -24
-40 -53 -46 -66 l-12 -23 203 4 c112 3 218 5 236 6 19 0 32 6 32 13 0 7 16 23
35 36 29 18 46 22 100 19 45 -3 71 -9 85 -22 24 -21 26 -35 5 -35 -8 0 -15 -4
-15 -10 0 -5 47 -11 107 -13 l108 -3 -107 -2 c-60 -1 -108 -6 -108 -11 0 -15
15 -20 30 -11 9 6 19 3 28 -8 7 -9 11 -12 9 -7 -3 6 7 11 22 11 17 1 28 -4 28
-12 0 -9 -5 -10 -19 -3 -12 6 -18 6 -18 -1 0 -14 -37 -13 -43 3 -4 8 -6 7 -6
-3 -1 -8 8 -29 18 -46 18 -29 18 -33 3 -49 -18 -18 -18 -18 62 0 41 9 85 38
101 69 17 32 20 33 39 20 11 -8 24 -14 28 -14 5 0 8 31 8 69 l0 69 -50 11
c-28 6 -76 11 -106 11 -67 0 -413 91 -452 119 -15 10 -38 31 -52 46 l-25 27
130 -5 c248 -10 520 -29 528 -36 4 -4 -6 -7 -23 -6 -29 2 -30 0 -30 -37 0 -26
4 -38 14 -38 8 0 17 -8 22 -17 6 -15 8 -13 14 12 l8 30 1 -32 c0 -18 6 -33 11
-33 6 0 10 43 10 110 l0 110 -1500 0 -1500 0 0 -1595z m1834 1500 c4 -12 -3
-15 -29 -15 -19 0 -37 0 -40 0 -3 0 -5 3 -4 6 0 4 -5 11 -13 15 -8 6 4 9 33 9
33 0 49 -5 53 -15z m-1151 -12 c-7 -2 -19 -2 -25 0 -7 3 -2 5 12 5 14 0 19 -2
13 -5z m1148 -44 c9 -17 8 -23 -2 -30 -21 -13 -26 -11 -31 16 -8 40 14 49 33
14z m-64 -41 c-3 -7 -5 -2 -5 12 0 14 2 19 5 13 2 -7 2 -19 0 -25z m-1084
-115 c-7 -2 -19 -2 -25 0 -7 3 -2 5 12 5 14 0 19 -2 13 -5z m4 -199 c-3 -3
-12 -4 -19 -1 -8 3 -5 6 6 6 11 1 17 -2 13 -5z m209 -181 c-11 -11 -17 4 -9
23 7 18 8 18 11 1 2 -10 1 -21 -2 -24z m134 -3 c0 -5 -7 -10 -15 -10 -8 0 -15
5 -15 10 0 6 7 10 15 10 8 0 15 -4 15 -10z m1295 -10 c19 -8 19 -9 -2 -9 -12
-1 -25 4 -28 9 -7 12 2 12 30 0z m-582 -151 c8 -8 11 -36 9 -81 -3 -58 -7 -70
-23 -76 -11 -4 -31 -26 -44 -47 l-24 -40 -1 118 c0 97 3 117 15 117 8 0 15 5
15 10 0 14 38 13 53 -1z m225 -96 l3 -72 -32 -3 c-28 -2 -35 -9 -43 -38 -10
-31 -11 -25 -14 60 -4 131 -2 138 45 131 l38 -6 3 -72z m262 -97 c0 -7 -3 -26
-6 -42 -4 -23 -11 -29 -32 -29 -40 0 -52 12 -52 51 0 34 0 34 45 34 32 0 45
-4 45 -14z m218 -28 c-3 -42 -4 -43 -41 -43 -34 0 -38 3 -43 32 -8 43 0 53 47
53 l40 0 -3 -42z m-603 -58 l0 -55 -42 -3 -43 -3 0 61 0 61 43 -3 42 -3 0 -55z
m38 -2 c-8 -46 -13 -48 -13 -5 0 21 4 37 10 37 5 0 7 -14 3 -32z m187 -12 c0
-48 -13 -58 -60 -46 -21 5 -25 12 -28 48 l-3 42 45 0 46 0 0 -44z m478 -33 c3
-21 -1 -23 -42 -23 -38 0 -46 3 -46 18 0 26 5 29 48 28 30 -1 38 -5 40 -23z
m-220 0 c-2 -13 -15 -19 -46 -21 -37 -3 -42 -1 -42 17 0 18 6 21 46 21 38 0
45 -3 42 -17z m-559 -49 c18 -25 31 -48 29 -50 -2 -1 -17 17 -33 41 l-30 44
-38 -42 -38 -42 33 48 c17 26 35 47 38 47 3 0 21 -21 39 -46z m-296 -11 c-7
-2 -21 -2 -30 0 -10 3 -4 5 12 5 17 0 24 -2 18 -5z m70 -80 c-18 -2 -48 -2
-65 0 -18 2 -4 4 32 4 36 0 50 -2 33 -4z m-1043 -30 c2 -2 5 -24 5 -49 l0 -44
38 0 37 0 0 49 c0 53 12 64 64 54 l26 -5 0 -132 c0 -72 -4 -137 -9 -144 -5 -8
-22 -12 -42 -10 -34 3 -34 3 -37 61 l-3 58 -37 -3 -36 -3 2 -45 c3 -58 -7 -72
-49 -68 l-34 3 -3 142 c-2 128 -1 142 15 146 18 4 53 -1 63 -10z m-122 -20
c-3 -24 -8 -28 -40 -31 l-37 -3 -3 -112 -3 -112 -28 -3 c-52 -6 -59 11 -55
122 l3 101 -37 3 c-35 3 -38 6 -38 33 l0 29 121 0 120 0 -3 -27z m545 15 c11
-35 -5 -48 -59 -48 -47 0 -54 -3 -54 -19 0 -16 8 -20 43 -23 39 -3 42 -5 42
-33 0 -28 -3 -30 -42 -33 -38 -3 -43 -6 -43 -27 0 -22 4 -24 58 -27 56 -3 57
-3 57 -33 l0 -30 -97 -3 -98 -3 0 146 0 145 94 0 c67 0 96 -4 99 -12z m617 -4
c0 -8 -5 -12 -10 -9 -6 4 -8 11 -5 16 9 14 15 11 15 -7z m-1302 -550 l3 -142
-25 -6 c-53 -13 -56 -6 -56 151 l0 144 38 -3 37 -3 3 -141z m178 71 l49 -74 5
72 5 72 35 0 35 0 3 -142 c2 -134 1 -142 -17 -148 -32 -10 -55 9 -102 82 l-44
67 -3 -71 c-3 -76 -14 -89 -62 -76 -19 5 -20 14 -20 142 0 76 3 141 7 144 3 4
19 7 33 7 23 0 35 -12 76 -75z m414 40 c0 -33 -2 -35 -35 -35 l-35 0 0 -109
c0 -105 -1 -109 -23 -115 -12 -3 -33 -3 -45 1 -21 5 -22 10 -22 114 l0 108
-37 3 c-27 2 -39 8 -41 21 -8 43 2 47 123 47 l115 0 0 -35z m244 19 c15 -39
-3 -54 -60 -54 -47 0 -54 -2 -54 -20 0 -17 7 -20 45 -20 43 0 45 -1 45 -30 0
-29 -2 -30 -45 -30 -43 0 -45 -1 -45 -30 l0 -30 60 0 60 0 0 -30 0 -30 -100 0
-100 0 0 145 0 145 94 0 c78 0 95 -3 100 -16z m136 -99 l0 -115 55 0 c54 0 55
0 55 -30 l0 -30 -95 0 -95 0 0 145 0 145 40 0 40 0 0 -115z m238 -2 l3 -113
48 0 c50 0 67 -13 55 -45 -5 -12 -26 -15 -100 -15 l-94 0 0 129 c0 71 3 137 6
146 5 12 17 15 43 13 l36 -3 3 -112z m232 -27 c0 -136 -1 -145 -20 -151 -11
-3 -29 -3 -40 0 -19 6 -20 15 -20 151 l0 144 40 0 40 0 0 -144z m289 135 c9
-6 11 -18 7 -35 -6 -23 -10 -25 -55 -23 -67 3 -91 -19 -91 -84 0 -52 23 -79
67 -79 21 0 23 5 23 51 l0 50 38 -3 37 -3 3 -69 c2 -38 -1 -73 -6 -78 -5 -5
-34 -12 -64 -15 -42 -4 -65 -1 -101 15 -65 29 -89 70 -84 144 3 61 19 86 72
119 32 20 128 26 154 10z m283 -8 c9 -43 -2 -53 -58 -53 -47 0 -54 -2 -54 -20
0 -17 7 -20 45 -20 43 0 45 -1 45 -30 0 -29 -2 -30 -45 -30 -43 0 -45 -1 -45
-30 0 -28 1 -29 58 -32 54 -3 57 -4 60 -30 l3 -28 -100 0 -101 0 0 145 0 145
94 0 c82 0 95 -2 98 -17z m173 -59 l50 -76 3 77 3 76 37 -3 37 -3 3 -141 c2
-123 0 -142 -14 -148 -34 -13 -60 6 -109 82 l-50 76 -3 -76 c-2 -64 -6 -78
-21 -83 -10 -3 -26 -3 -35 1 -14 5 -16 26 -16 150 l0 144 33 0 c29 0 37 -8 82
-76z m415 41 c0 -34 -1 -35 -40 -35 l-40 0 0 -109 c0 -101 -2 -110 -20 -116
-11 -3 -29 -3 -40 0 -18 6 -20 15 -20 116 l0 109 -40 0 c-37 0 -40 2 -40 28 0
16 3 32 7 35 3 4 57 7 120 7 l113 0 0 -35z m-2600 -540 l0 -145 -40 0 -40 0 0
145 0 145 40 0 40 0 0 -145z m177 73 l48 -71 5 69 5 69 38 3 37 3 0 -145 0
-146 -34 0 c-31 0 -38 6 -85 76 l-50 76 -3 -74 -3 -73 -37 -3 -38 -3 0 145 0
146 35 0 c32 0 39 -6 82 -72z m285 -17 c15 -46 29 -85 31 -88 3 -2 18 35 34
84 l30 88 43 3 c32 2 41 0 38 -10 -3 -7 -27 -73 -53 -145 l-48 -133 -44 0
c-23 0 -43 1 -43 3 0 2 -22 65 -50 141 -27 76 -50 140 -50 143 0 2 19 3 42 1
l43 -3 27 -84z m418 59 c0 -30 -1 -30 -55 -30 -52 0 -55 -1 -55 -24 0 -22 5
-25 43 -28 37 -3 42 -6 42 -28 0 -22 -5 -25 -42 -28 -40 -3 -43 -5 -43 -33 0
-29 1 -29 55 -29 54 0 55 0 55 -30 l0 -30 -100 0 -100 0 0 145 0 145 100 0
100 0 0 -30z m239 21 c9 -6 11 -18 8 -33 -6 -22 -12 -24 -59 -23 -70 0 -69
-18 2 -53 69 -34 89 -66 70 -111 -19 -47 -60 -64 -141 -59 -37 2 -71 6 -74 10
-3 3 -3 17 1 32 6 25 8 26 58 20 42 -5 54 -3 66 11 13 15 12 19 -5 31 -10 8
-27 14 -36 14 -10 0 -31 12 -48 26 -48 40 -41 102 14 132 24 14 124 15 144 3z
m291 -21 c0 -28 -2 -30 -40 -30 l-40 0 0 -115 0 -115 -40 0 -39 0 -3 113 -3
112 -37 3 c-35 3 -38 6 -38 33 l0 29 120 0 120 0 0 -30z m268 -4 c36 -34 37
-36 37 -110 0 -72 -2 -77 -32 -108 -27 -27 -41 -32 -91 -36 -79 -6 -117 14
-144 75 -15 33 -18 57 -14 85 15 92 55 127 149 128 52 0 61 -3 95 -34z m279
15 c43 -27 52 -70 24 -117 l-21 -36 30 -53 c16 -29 30 -56 30 -59 0 -4 -19 -6
-42 -4 -41 3 -44 5 -76 65 l-33 62 21 21 c28 28 24 74 -7 78 -22 3 -22 1 -25
-110 l-3 -113 -40 0 -40 0 -3 129 c-1 72 0 136 2 143 9 22 144 17 183 -6z
m-177 -411 c0 -7 -320 -10 -940 -10 -620 0 -940 3 -940 10 0 7 320 10 940 10
620 0 940 -3 940 -10z m-1793 -118 c6 -4 13 -30 15 -57 l3 -50 -42 -3 -43 -3
0 60 c0 60 1 61 28 61 15 0 32 -4 39 -8z m141 -52 c21 -59 21 -60 2 -60 -11 0
-20 5 -20 10 0 6 -9 10 -19 10 -11 0 -23 -4 -26 -10 -3 -5 -12 -10 -20 -10
-11 0 -11 8 2 48 31 92 51 95 81 12z m129 43 c3 -7 -8 -13 -24 -15 -24 -3 -28
-8 -28 -33 0 -25 4 -30 28 -33 39 -5 33 -22 -7 -22 -25 0 -39 7 -50 22 -22 31
-20 45 9 74 26 26 65 30 72 7z m122 -39 c23 -62 21 -75 -9 -56 -24 15 -50 16
-50 2 0 -5 -7 -10 -16 -10 -18 0 -15 25 11 87 20 48 39 41 64 -23z m133 -3
c20 -60 17 -71 -12 -53 -24 15 -50 16 -50 2 0 -5 -7 -10 -16 -10 -18 0 -15 20
11 84 22 52 44 44 67 -23z m90 27 l27 -33 1 33 c0 59 25 31 28 -31 3 -65 -12
-75 -46 -32 -11 14 -22 25 -25 25 -2 0 -2 -11 1 -25 3 -20 0 -25 -15 -25 -18
0 -20 6 -17 53 2 28 3 55 4 60 0 15 16 6 42 -25z m162 20 c16 -52 19 -54 29
-20 12 40 36 42 44 2 7 -37 23 -50 23 -18 0 31 17 56 28 43 6 -6 4 -30 -6 -62
-17 -61 -44 -73 -57 -25 l-8 27 -10 -27 c-18 -46 -42 -35 -59 27 -8 30 -13 57
-10 60 9 9 23 5 26 -7z m234 -48 c20 -59 20 -60 1 -60 -10 0 -19 5 -19 10 0 6
-9 10 -20 10 -11 0 -20 -4 -20 -10 0 -5 -9 -10 -20 -10 -20 0 -20 0 1 52 26
65 27 68 44 68 7 0 22 -26 33 -60z m100 3 l-3 -58 -35 -2 c-35 -3 -35 -3 -12
13 26 19 29 59 6 72 -23 13 -9 32 22 32 24 0 25 -2 22 -57z m62 -3 c0 -47 -3
-60 -15 -60 -11 0 -15 13 -15 53 0 30 3 57 7 60 17 17 23 2 23 -53z m107 52
c6 -4 13 -30 15 -57 l3 -50 -42 -3 -43 -3 0 60 c0 60 1 61 28 61 15 0 32 -4
39 -8z m-1317 -262 c0 -47 -3 -60 -15 -60 -12 0 -15 13 -15 60 0 47 3 60 15
60 12 0 15 -13 15 -60z m76 35 c9 -14 20 -25 25 -25 5 0 9 11 9 25 0 14 5 25
10 25 6 0 10 -27 10 -60 0 -33 -3 -60 -7 -60 -5 0 -20 14 -35 32 l-27 33 -1
-32 c0 -23 -5 -33 -15 -33 -12 0 -15 13 -15 60 0 67 17 80 46 35z m129 -15
l13 -35 11 28 c6 16 11 33 11 38 0 5 9 9 19 9 19 0 19 -2 -2 -60 -28 -78 -47
-79 -76 -4 -25 67 -25 66 -4 62 9 -2 22 -19 28 -38z m175 30 c0 -5 -9 -10 -19
-10 -27 0 -35 -17 -11 -23 26 -7 26 -23 -1 -30 -25 -7 -16 -27 12 -27 10 0 19
-4 19 -10 0 -5 -18 -10 -40 -10 l-40 0 0 60 0 60 40 0 c22 0 40 -4 40 -10z
m110 0 c0 -5 -8 -10 -18 -10 -32 0 -33 -13 -2 -31 49 -30 33 -69 -27 -69 -23
0 -33 5 -33 16 0 11 6 13 19 9 30 -9 34 11 6 29 -27 18 -32 35 -13 54 14 14
68 16 68 2z m120 1 c0 -5 -7 -11 -15 -15 -10 -4 -15 -20 -15 -51 0 -33 -4 -45
-14 -45 -11 0 -16 14 -18 48 -2 28 -8 47 -15 48 -23 2 -24 4 -18 14 8 12 95
13 95 1z m130 -23 c13 -25 13 -31 0 -55 -30 -54 -110 -36 -110 24 0 64 79 85
110 31z m121 16 c10 -12 10 -20 1 -35 -10 -16 -9 -24 4 -44 15 -24 15 -25 -3
-25 -23 0 -44 39 -36 68 2 11 0 23 -6 26 -7 5 -11 -10 -11 -43 0 -39 -4 -51
-15 -51 -12 0 -15 13 -15 60 l0 60 34 0 c18 0 39 -7 47 -16z m183 -6 c14 -23
-3 -52 -33 -56 -13 -2 -21 -11 -21 -23 0 -10 -7 -19 -15 -19 -12 0 -15 13 -15
61 l0 60 36 -3 c22 -2 42 -10 48 -20z m66 -38 c0 -47 -3 -60 -15 -60 -12 0
-15 13 -15 60 0 47 3 60 15 60 12 0 15 -13 15 -60z m79 33 l20 -28 1 28 c0 17
5 27 15 27 12 0 15 -13 15 -60 0 -66 -16 -80 -40 -35 -7 14 -17 25 -22 25 -4
0 -8 -11 -8 -25 0 -16 -6 -25 -15 -25 -12 0 -15 13 -15 60 0 69 15 78 49 33z
m179 15 c-3 -7 -11 -13 -19 -13 -10 0 -15 -15 -17 -47 -2 -34 -7 -48 -18 -48
-10 0 -14 12 -14 45 0 31 -5 47 -15 51 -31 12 -13 24 36 24 36 0 49 -4 47 -12z
m94 -46 c22 -58 18 -73 -12 -54 -24 15 -50 16 -50 2 0 -5 -7 -10 -16 -10 -18
0 -15 20 11 84 21 51 43 44 67 -22z m128 37 c8 -15 8 -24 0 -34 -8 -10 -8 -19
-1 -34 15 -26 14 -31 -4 -31 -19 0 -36 40 -28 68 2 11 0 23 -6 26 -7 5 -11
-10 -11 -43 0 -39 -4 -51 -15 -51 -12 0 -15 13 -15 60 l0 60 35 0 c24 0 37 -6
45 -21z m823 -489 l176 -170 -15 -44 -15 -44 -172 -68 c-95 -38 -176 -71 -182
-73 -5 -2 -7 0 -3 4 4 4 -1 15 -10 24 -10 9 -12 12 -5 7 14 -9 17 4 13 57 -1
15 3 33 8 40 6 7 15 31 21 54 6 22 25 56 42 74 27 29 29 35 18 55 -7 13 -16
21 -22 17 -5 -3 -7 0 -5 8 3 8 14 12 24 11 14 -3 16 -1 8 8 -8 7 -19 8 -37 1
-35 -13 -34 -21 5 -48 l31 -22 -27 3 c-32 3 -66 54 -45 67 7 4 9 15 5 24 -4
10 0 25 7 34 8 9 18 33 21 54 6 29 3 44 -14 67 -45 63 2 24 173 -140z m-308
150 c3 -5 1 -10 -4 -10 -6 0 -11 5 -11 10 0 6 2 10 4 10 3 0 8 -4 11 -10z m63
-50 c7 -11 9 -20 4 -20 -4 0 -13 9 -20 20 -7 11 -9 20 -4 20 4 0 13 -9 20 -20z
m52 11 c0 -6 -4 -13 -10 -16 -5 -3 -10 1 -10 9 0 9 5 16 10 16 6 0 10 -4 10
-9z m-75 -31 c3 -5 1 -10 -4 -10 -6 0 -11 5 -11 10 0 6 2 10 4 10 3 0 8 -4 11
-10z m5 -206 c0 5 7 3 15 -4 13 -10 15 -9 15 8 0 16 4 20 17 15 11 -4 13 -8 5
-11 -10 -3 -10 -7 0 -20 9 -11 10 -14 1 -8 -7 4 -22 2 -33 -4 -24 -13 -50 7
-50 37 1 17 2 17 15 -1 8 -11 15 -16 15 -12z m110 6 c0 -13 -12 -19 -26 -13
-21 8 -17 19 6 19 11 0 20 -3 20 -6z m-220 -446 c0 -12 6 -27 14 -33 8 -6 16
-20 19 -31 4 -17 2 -18 -14 -10 -27 15 -72 112 -56 122 15 10 37 -18 37 -48z"/>
<path d="M1816 2148 c-9 -12 -16 -41 -16 -63 0 -49 23 -85 55 -85 39 0 55 25
55 85 0 60 -16 85 -55 85 -13 0 -31 -10 -39 -22z"/>
<path d="M230 1650 c0 -5 5 -10 10 -10 6 0 10 5 10 10 0 6 -4 10 -10 10 -5 0
-10 -4 -10 -10z"/>
<path d="M230 1606 c0 -9 7 -16 16 -16 17 0 14 22 -4 28 -7 2 -12 -3 -12 -12z"/>
<path d="M360 1626 c0 -9 5 -16 10 -16 6 0 10 4 10 9 0 6 -4 13 -10 16 -5 3
-10 -1 -10 -9z"/>
<path d="M610 1625 c0 -8 5 -15 10 -15 6 0 10 7 10 15 0 8 -4 15 -10 15 -5 0
-10 -7 -10 -15z"/>
<path d="M747 1636 c-4 -10 -5 -21 -2 -24 9 -9 17 6 13 25 -3 17 -4 17 -11 -1z"/>
<path d="M1230 1625 c0 -8 5 -15 10 -15 6 0 10 7 10 15 0 8 -4 15 -10 15 -5 0
-10 -7 -10 -15z"/>
<path d="M1510 1650 c0 -5 5 -10 10 -10 6 0 10 5 10 10 0 6 -4 10 -10 10 -5 0
-10 -4 -10 -10z"/>
<path d="M1510 1606 c0 -9 7 -16 16 -16 17 0 14 22 -4 28 -7 2 -12 -3 -12 -12z"/>
<path d="M900 1441 c-8 -15 -8 -27 0 -42 16 -29 35 -18 35 21 0 39 -19 50 -35
21z"/>
<path d="M1220 1440 c0 -11 5 -20 10 -20 6 0 10 9 10 20 0 11 -4 20 -10 20 -5
0 -10 -9 -10 -20z"/>
<path d="M1645 1421 c-3 -5 -1 -12 5 -16 5 -3 10 1 10 9 0 18 -6 21 -15 7z"/>
<path d="M2570 885 c10 -12 9 -15 -5 -15 -10 0 -16 -3 -12 -6 3 -4 13 -4 21
-1 17 7 11 37 -6 37 -6 0 -5 -6 2 -15z"/>
<path d="M1474 4294 c3 -9 6 -22 6 -30 0 -9 5 -12 10 -9 6 4 8 10 5 15 -3 4 5
10 16 13 28 7 15 27 -18 27 -19 0 -24 -4 -19 -16z"/>
<path d="M2890 4300 c0 -5 5 -10 10 -10 6 0 10 -7 10 -15 0 -8 7 -15 15 -15 8
0 15 4 15 9 0 5 3 16 6 25 5 13 -1 16 -25 16 -17 0 -31 -4 -31 -10z"/>
<path d="M2032 4022 c-46 -71 -47 -78 -17 -98 25 -16 27 -16 53 10 16 14 32
26 38 26 5 0 22 -20 37 -45 16 -25 32 -45 36 -45 3 0 18 21 31 46 29 53 96 97
106 69 8 -19 24 -20 24 -1 0 8 7 16 15 20 8 3 15 15 15 26 0 11 6 20 13 20 8
0 7 4 -3 10 -8 5 -83 10 -166 10 l-151 0 -31 -48z m323 8 c0 -7 -6 -15 -12
-17 -8 -3 -13 4 -13 17 0 13 5 20 13 18 6 -3 12 -11 12 -18z m-65 6 c0 -3 -4
-8 -10 -11 -5 -3 -10 -1 -10 4 0 6 5 11 10 11 6 0 10 -2 10 -4z"/>
<path d="M2976 3998 c-9 -35 -8 -38 14 -38 20 0 25 15 14 44 -9 23 -21 20 -28
-6z"/>
<path d="M2295 3961 c6 -11 3 -13 -18 -7 -23 5 -29 1 -52 -38 -39 -66 -48 -71
-73 -36 -12 16 -22 33 -22 38 0 4 -5 13 -12 20 -14 14 -52 -4 -42 -21 4 -7 4
-9 -1 -5 -4 4 -14 3 -22 -3 -10 -9 -19 -7 -39 6 -14 9 -28 14 -31 11 -4 -3
-10 -56 -15 -118 -9 -120 -7 -128 40 -128 13 0 32 5 42 10 16 8 18 7 14 -4 -8
-20 70 -32 102 -16 23 13 48 65 39 80 -3 4 2 10 10 13 17 7 48 64 42 80 -2 7
13 22 33 34 31 18 36 27 33 47 -3 14 -12 31 -21 38 -13 11 -14 11 -7 -1z
m-185 -245 c0 -2 -7 -7 -16 -10 -8 -3 -12 -2 -9 4 6 10 25 14 25 6z"/>
<path d="M2336 3935 c4 -8 10 -15 14 -15 4 0 10 7 14 15 4 10 -1 15 -14 15
-13 0 -18 -5 -14 -15z"/>
<path d="M2692 3920 c0 -14 3 -36 7 -49 6 -22 8 -22 20 -7 12 14 12 19 -1 34
-9 9 -18 24 -21 32 -3 9 -5 4 -5 -10z"/>
<path d="M3017 3933 c-9 -2 -15 -9 -12 -14 4 -5 1 -9 -5 -9 -6 0 -9 -4 -6 -9
10 -16 46 0 46 20 0 11 -1 18 -2 18 -2 -1 -11 -3 -21 -6z"/>
<path d="M1000 3875 c0 -19 4 -35 9 -35 11 0 36 30 25 30 -5 0 -3 4 5 9 18 11
5 31 -20 31 -15 0 -19 -7 -19 -35z"/>
<path d="M2930 3884 c0 -8 5 -12 10 -9 6 3 10 1 10 -5 0 -7 -7 -9 -15 -6 -15
5 -151 -52 -142 -60 2 -3 16 0 30 5 17 7 27 7 29 0 2 -6 26 3 53 20 28 17 58
34 68 37 24 9 22 27 -3 19 -11 -4 -20 -2 -20 4 0 6 -4 11 -10 11 -5 0 -10 -7
-10 -16z"/>
<path d="M1918 3801 c-38 -83 -36 -101 8 -101 20 0 22 6 29 86 4 47 5 87 3 90
-3 2 -21 -32 -40 -75z"/>
<path d="M2381 3852 c-13 -4 -15 -48 -2 -56 5 -3 18 9 29 28 19 32 19 35 3 33
-10 0 -23 -3 -30 -5z"/>
<path d="M2710 3791 c0 -11 5 -23 10 -26 6 -3 10 3 10 14 0 11 -4 23 -10 26
-5 3 -10 -3 -10 -14z"/>
<path d="M3005 3787 c-16 -7 -41 -18 -54 -26 l-23 -13 26 -17 c14 -10 24 -20
20 -23 -3 -4 2 -20 11 -38 9 -18 19 -29 22 -26 4 3 12 1 20 -5 11 -9 13 4 13
75 0 47 -1 86 -2 85 -2 0 -16 -6 -33 -12z"/>
<path d="M2541 1802 c-35 -69 -35 -81 -5 -92 33 -13 44 -5 19 14 -20 14 -12
41 11 32 7 -3 16 -1 19 5 4 5 0 12 -9 15 -25 10 -7 35 20 28 35 -9 30 12 -6
25 -29 9 -31 8 -49 -27z"/>
<path d="M2610 1754 c-19 -47 -21 -57 -9 -65 28 -18 54 -4 77 41 l23 45 -22
18 c-34 27 -45 21 -69 -39z m60 21 c0 -12 -35 -75 -42 -75 -11 0 -10 5 6 45 8
19 20 35 25 35 6 0 11 -2 11 -5z"/>
<path d="M2697 1720 c-20 -47 -22 -60 -11 -60 8 0 24 21 35 48 26 59 27 64 13
69 -6 2 -22 -24 -37 -57z"/>
<path d="M2765 1746 c-19 -13 -19 -16 -3 -49 16 -33 15 -47 -4 -47 -4 0 -8 7
-8 15 0 8 -4 15 -10 15 -17 0 -11 -37 6 -44 44 -17 68 20 43 66 -8 14 -8 23 0
31 8 8 11 8 11 -1 0 -7 7 -12 15 -12 21 0 19 17 -4 30 -25 13 -23 13 -46 -4z"/>
<path d="M2832 1677 c-25 -59 -26 -67 -12 -67 6 0 21 25 35 56 29 66 29 64 12
64 -7 0 -23 -24 -35 -53z"/>
<path d="M3031 1714 c0 -11 3 -14 6 -6 3 7 2 16 -1 19 -3 4 -6 -2 -5 -13z"/>
<path d="M2978 1688 c-32 -18 -38 -27 -38 -55 l0 -33 36 15 c20 8 38 15 41 15
2 0 3 18 1 40 -1 22 -2 40 -2 40 -1 0 -18 -10 -38 -22z"/>
<path d="M3032 1665 c0 -16 2 -22 5 -12 2 9 2 23 0 30 -3 6 -5 -1 -5 -18z"/>
<path d="M2440 1620 c-24 -51 -20 -81 6 -46 14 19 14 19 14 -2 0 -13 6 -22 15
-22 8 0 15 9 15 20 0 12 7 31 16 44 14 23 14 25 -8 40 -12 9 -25 16 -29 16 -3
0 -16 -22 -29 -50z m50 11 c0 -6 -4 -13 -10 -16 -5 -3 -10 1 -10 9 0 9 5 16
10 16 6 0 10 -4 10 -9z"/>
<path d="M2515 1591 l-25 -51 26 -11 c18 -6 31 -6 37 0 7 7 5 12 -6 17 -21 8
-22 24 -1 24 11 0 14 6 9 20 -5 16 -2 20 14 20 12 0 21 5 21 10 0 6 -4 10 -9
10 -5 0 -16 3 -25 6 -10 4 -22 -9 -41 -45z"/>
<path d="M2600 1595 c-6 -15 -11 -41 -13 -58 -3 -49 24 -44 56 9 31 51 29 68
-4 38 -21 -19 -22 -19 -15 3 10 31 -12 39 -24 8z"/>
<path d="M2666 1541 c-23 -45 -24 -61 -5 -61 8 0 49 85 49 101 0 24 -22 4 -44
-40z"/>
<path d="M2719 1558 c-2 -20 -2 -21 6 -48 6 -20 5 -23 -6 -12 -19 18 -29 15
-29 -8 0 -25 27 -37 49 -23 17 11 19 35 7 65 -6 13 -3 15 15 11 16 -4 20 -2
17 8 -6 18 -58 25 -59 7z"/>
<path d="M2780 1508 c-22 -46 -25 -68 -10 -68 10 0 50 81 50 101 0 23 -21 5
-40 -33z"/>
<path d="M2273 1163 c-19 -7 -16 -20 6 -26 14 -3 17 0 14 14 -3 11 -6 19 -7
18 0 0 -7 -3 -13 -6z"/>
<path d="M208 1084 c-5 -4 -8 -49 -8 -101 l0 -93 53 0 c65 0 97 20 97 61 0 16
-6 32 -14 35 -11 4 -12 11 -3 35 9 24 8 32 -5 45 -17 18 -108 31 -120 18z m77
-54 c0 -8 -8 -16 -17 -18 -13 -2 -18 3 -18 18 0 15 5 20 18 18 9 -2 17 -10 17
-18z m13 -82 c3 -13 -3 -18 -22 -18 -20 0 -26 5 -26 21 0 15 5 20 22 17 13 -2
24 -11 26 -20z"/>
<path d="M384 1081 c-2 -2 -4 -46 -4 -98 l0 -93 65 0 c58 0 65 2 65 20 0 16
-7 20 -35 20 -28 0 -35 4 -35 19 0 14 8 21 27 23 17 2 29 10 31 21 3 13 -3 17
-27 17 -21 0 -31 5 -31 15 0 11 11 15 36 15 31 0 35 3 32 22 -3 20 -9 22 -61
22 -32 1 -61 -1 -63 -3z"/>
<path d="M544 1077 c-3 -8 -4 -52 -2 -98 3 -78 5 -84 25 -87 20 -3 22 2 25 49
l3 52 35 -52 c25 -37 41 -51 55 -49 18 3 20 11 20 98 0 88 -1 95 -20 95 -17 0
-21 -8 -25 -50 l-5 -50 -37 53 c-37 51 -64 65 -74 39z"/>
<path d="M750 1063 c0 -14 6 -23 15 -23 11 0 15 -13 15 -54 0 -49 -2 -55 -22
-58 -13 -2 -24 -11 -26 -20 -3 -14 3 -18 28 -18 63 0 70 11 70 109 l0 88 -40
0 c-35 0 -40 -3 -40 -24z"/>
<path d="M923 1078 c-6 -7 -22 -44 -36 -83 -14 -38 -28 -78 -32 -87 -6 -15 -2
-18 20 -18 18 0 29 6 32 19 7 27 69 27 76 0 3 -13 14 -19 31 -19 14 0 26 3 25
8 0 4 -15 48 -33 97 -25 70 -37 91 -52 93 -12 2 -25 -3 -31 -10z m37 -100 c0
-10 -7 -18 -15 -18 -16 0 -19 17 -9 45 5 13 8 14 15 3 5 -7 9 -21 9 -30z"/>
<path d="M1077 1083 c-3 -5 -6 -48 -8 -98 -4 -86 -3 -90 18 -93 20 -3 22 2 25
50 l4 53 14 -32 c20 -47 52 -44 70 5 l15 37 5 -55 c4 -48 8 -55 28 -58 21 -3
22 -1 22 81 0 98 -5 117 -31 117 -12 0 -27 -17 -45 -52 l-27 -53 -23 53 c-17
38 -28 52 -43 52 -11 0 -22 -3 -24 -7z"/>
<path d="M1317 1083 c-4 -3 -7 -48 -7 -100 0 -93 0 -93 25 -93 l25 0 0 100 c0
90 -2 100 -18 100 -10 0 -22 -3 -25 -7z"/>
<path d="M1407 1083 c-4 -3 -7 -48 -7 -100 0 -93 0 -93 25 -93 23 0 25 3 25
52 l0 52 36 -52 c22 -31 44 -52 55 -52 17 0 19 9 19 100 0 93 -1 100 -20 100
-17 0 -20 -7 -20 -50 0 -27 -3 -50 -7 -50 -5 0 -23 23 -41 50 -30 47 -49 59
-65 43z"/>
<path d="M2180 1075 c0 -8 5 -15 10 -15 6 0 10 7 10 15 0 8 -4 15 -10 15 -5 0
-10 -7 -10 -15z"/>
<path d="M2234 1031 c8 -12 -19 -22 -31 -10 -5 5 -9 2 -9 -9 0 -10 8 -18 18
-18 10 0 18 4 18 9 0 5 10 5 23 1 22 -7 22 -6 3 15 -19 21 -32 28 -22 12z"/>
<path d="M2150 1006 c0 -2 8 -10 18 -17 15 -13 16 -12 3 4 -13 16 -21 21 -21
13z"/>
<path d="M238 795 c-43 -24 -56 -109 -22 -146 23 -25 82 -40 119 -31 28 8 30
12 30 53 0 38 -3 44 -22 47 -20 3 -23 -1 -23 -27 0 -38 -15 -47 -45 -27 -27
18 -33 53 -15 87 8 14 21 19 51 19 33 0 40 3 37 18 -4 23 -73 27 -110 7z"/>
<path d="M420 715 c0 -95 0 -95 25 -95 24 0 25 2 25 75 0 61 3 75 15 75 24 0
30 -28 11 -49 -16 -18 -16 -21 4 -60 17 -35 25 -41 51 -41 l31 0 -23 36 c-18
30 -20 40 -11 55 34 54 -2 99 -80 99 l-48 0 0 -95z"/>
<path d="M642 723 c-18 -49 -32 -91 -32 -95 0 -15 48 -8 54 7 3 9 18 15 36 15
18 0 33 -6 36 -15 6 -16 54 -21 54 -6 0 5 -14 48 -31 95 -29 78 -34 86 -58 86
-24 0 -29 -8 -59 -87z m70 -8 c4 -20 1 -25 -14 -25 -14 0 -18 5 -14 16 3 9 6
20 6 25 0 20 18 7 22 -16z"/>
<path d="M830 715 c0 -94 0 -95 24 -95 21 0 25 5 28 38 3 32 6 37 28 37 22 0
25 -5 28 -37 3 -33 7 -38 28 -38 24 0 24 1 24 95 0 95 0 95 -25 95 -22 0 -25
-4 -25 -35 0 -32 -2 -35 -30 -35 -28 0 -30 3 -30 35 0 31 -3 35 -25 35 -25 0
-25 0 -25 -95z"/>
<path d="M1095 798 c-2 -7 -18 -50 -34 -95 l-30 -83 25 0 c14 0 27 7 30 15 4
9 19 15 39 15 20 0 35 -6 39 -15 3 -8 17 -15 30 -15 l25 0 -32 93 c-29 84 -34
92 -60 95 -16 2 -29 -2 -32 -10z m38 -106 c-22 -5 -26 4 -18 35 l8 28 12 -30
c11 -26 11 -30 -2 -33z"/>
<path d="M1267 803 c-4 -3 -7 -46 -7 -95 0 -81 2 -88 20 -88 17 0 20 7 20 45
0 52 13 59 29 15 13 -38 36 -38 60 1 15 24 20 27 25 14 3 -9 6 -30 6 -46 0
-24 4 -29 23 -29 23 0 24 2 20 83 -5 101 -7 107 -33 107 -15 0 -27 -14 -45
-52 l-24 -52 -22 52 c-17 40 -27 52 -44 52 -12 0 -25 -3 -28 -7z"/>
<path d="M722 408 c-17 -17 -15 -25 8 -31 21 -5 26 8 12 30 -6 10 -11 10 -20
1z"/>
<path d="M765 410 c-3 -6 1 -13 10 -16 13 -6 14 -8 3 -15 -10 -7 -9 -9 4 -9
23 0 33 19 13 26 -13 6 -14 8 -3 15 10 7 9 9 -4 9 -9 0 -20 -5 -23 -10z"/>
<path d="M824 405 c-4 -9 -2 -21 4 -27 15 -15 44 -1 40 19 -4 23 -36 29 -44 8z
m36 -10 c0 -8 -7 -15 -15 -15 -8 0 -15 7 -15 15 0 8 7 15 15 15 8 0 15 -7 15
-15z"/>
<path d="M887 413 c-4 -3 -7 -16 -7 -27 0 -17 2 -18 9 -7 8 12 12 12 25 2 14
-12 16 -10 16 8 0 14 -4 20 -11 15 -6 -3 -14 -1 -18 5 -4 6 -10 8 -14 4z"/>
<path d="M972 395 c-11 -23 -9 -25 11 -24 12 0 16 3 10 6 -9 3 -10 10 -3 24 6
10 7 19 2 19 -5 0 -14 -11 -20 -25z"/>
<path d="M1010 414 c0 -5 7 -19 15 -30 8 -10 15 -14 15 -8 0 5 -7 19 -15 30
-8 10 -15 14 -15 8z"/>
<path d="M1040 409 c0 -9 6 -22 14 -28 11 -9 15 -7 19 9 3 12 1 18 -5 14 -6
-4 -14 0 -19 7 -7 11 -9 11 -9 -2z"/>
<path d="M1090 395 c0 -19 5 -25 23 -24 12 0 16 3 10 6 -7 2 -13 13 -13 24 0
10 -4 19 -10 19 -5 0 -10 -11 -10 -25z"/>
<path d="M1174 405 c-3 -8 -3 -19 1 -25 10 -17 35 -11 34 8 0 10 -3 12 -6 5
-2 -7 -9 -13 -14 -13 -14 0 -11 28 4 33 9 4 9 6 -1 6 -7 1 -15 -6 -18 -14z"/>
<path d="M690 397 c0 -8 -8 -18 -17 -20 -17 -4 -17 -5 0 -6 18 -1 35 25 23 36
-3 4 -6 -1 -6 -10z"/>
<path d="M1141 394 c0 -11 3 -14 6 -6 3 7 2 16 -1 19 -3 4 -6 -2 -5 -13z"/>
<path d="M3015 300 c-3 -5 -14 -10 -24 -10 -10 0 -24 -7 -31 -15 -10 -13 -10
-19 5 -35 19 -21 75 -28 75 -9 0 6 -7 8 -15 5 -17 -6 -55 13 -55 27 0 5 16 7
35 5 31 -4 35 -1 35 19 0 24 -14 31 -25 13z"/>
<path d="M2883 246 c-13 -6 -23 -14 -23 -18 0 -11 8 -10 30 2 13 7 21 7 25 0
3 -5 16 -9 28 -9 17 1 18 2 5 6 -10 2 -18 8 -18 13 0 14 -24 17 -47 6z"/>
</g>
</svg>
