<?xml version="1.0" standalone="no"?>
<!DOCTYPE svg PUBLIC "-//W3C//DTD SVG 20010904//EN"
 "http://www.w3.org/TR/2001/REC-SVG-20010904/DTD/svg10.dtd">
<svg version="1.0" xmlns="http://www.w3.org/2000/svg"
 width="310.000000pt" height="464.000000pt" viewBox="0 0 310.000000 464.000000"
 preserveAspectRatio="xMidYMid meet">

<g transform="translate(0.000000,464.000000) scale(0.100000,-0.100000)"
fill="#000000" stroke="none">
<path d="M1615 4482 c-17 -11 -38 -30 -46 -43 -37 -61 -61 -187 -58 -305 3
-94 -4 -108 -76 -149 -105 -60 -164 -31 -180 86 -10 68 -24 89 -59 89 -25 0
-45 -16 -117 -91 -99 -103 -90 -105 -128 21 -56 186 -69 213 -111 235 -70 36
-159 3 -208 -78 -18 -29 -32 -58 -32 -64 0 -6 -6 -16 -14 -22 -11 -10 -16 -2
-26 41 -33 142 -108 190 -216 137 -23 -11 -55 -36 -70 -56 -36 -48 -70 -152
-78 -243 -12 -138 25 -185 55 -70 41 156 108 300 139 300 11 0 27 -71 40 -180
19 -147 42 -179 128 -180 90 0 120 31 173 185 15 44 32 81 37 83 5 1 28 -56
51 -128 33 -101 50 -138 77 -166 31 -34 37 -36 78 -32 49 6 86 29 111 70 46
78 95 111 95 66 1 -42 37 -106 70 -123 36 -19 112 -22 153 -6 15 6 54 29 86
51 l59 39 26 -39 c59 -89 178 -109 301 -50 l66 31 29 -24 c42 -36 94 -50 155
-44 64 6 115 32 175 87 l45 41 8 -30 c4 -16 24 -44 44 -60 32 -26 46 -31 93
-31 63 0 105 21 141 69 21 29 49 42 49 23 0 -5 21 -18 48 -31 100 -46 183 -20
88 28 -62 32 -116 79 -116 101 0 10 -4 22 -10 25 -5 3 -10 17 -10 31 0 30 -26
96 -42 105 -7 4 -21 3 -31 -3 -17 -9 -19 -18 -14 -72 5 -52 2 -68 -16 -100
-29 -51 -68 -80 -96 -71 -45 14 -17 108 56 186 38 41 43 50 29 55 -10 4 -27 2
-39 -3 -81 -36 -126 -63 -204 -127 -115 -94 -166 -126 -203 -126 -32 0 -90 25
-90 38 0 4 17 25 36 47 53 59 94 126 94 152 0 33 -41 70 -86 79 -56 10 -114
-23 -145 -84 -19 -37 -24 -61 -24 -125 l0 -79 -50 -23 c-32 -15 -69 -24 -103
-24 -46 -1 -58 3 -82 27 -16 16 -32 45 -35 65 -6 32 -3 41 29 79 78 91 126
234 107 318 -19 84 -96 129 -156 92z m31 -219 c-10 -26 -18 -8 -9 23 5 21 8
24 11 11 2 -10 1 -25 -2 -34z m432 -115 c12 -15 -45 -108 -66 -108 -13 0 -7
70 10 103 10 20 41 23 56 5z"/>
<path d="M1183 4361 c-25 -22 -33 -38 -33 -63 0 -62 33 -74 87 -32 31 24 34
30 31 72 -3 42 -6 47 -28 50 -17 2 -36 -7 -57 -27z"/>
<path d="M515 3788 c-47 -16 -91 -53 -109 -92 -15 -31 -37 -130 -52 -229 -4
-28 -11 -40 -30 -47 -29 -11 -31 -26 -4 -42 25 -16 25 -24 0 -31 -22 -6 -28
-45 -9 -64 8 -8 8 -39 0 -112 -15 -140 -14 -226 4 -260 22 -44 91 -98 141
-110 33 -8 44 -16 44 -31 0 -41 49 -37 68 6 20 42 14 60 -34 116 -42 49 -45
56 -41 96 5 48 30 82 61 82 12 0 27 4 35 9 11 7 9 10 -7 15 -25 8 -38 36 -16
36 8 0 24 -5 34 -10 20 -11 38 4 19 16 -16 9 9 24 43 24 34 0 58 9 58 23 0 7
-4 7 -12 -1 -18 -18 -43 -15 -63 8 -10 11 -23 20 -29 20 -37 1 -110 115 -100
155 4 18 13 25 29 25 18 0 22 -4 18 -20 -4 -15 0 -20 15 -20 27 0 52 10 52 21
0 26 -37 49 -77 49 -53 0 -56 17 -8 47 19 13 42 35 52 50 23 36 35 44 48 33 6
-5 34 -14 63 -20 28 -6 56 -18 63 -26 16 -20 14 -183 -2 -229 -11 -28 -10 -36
4 -50 10 -9 17 -21 17 -26 0 -19 28 -8 34 14 6 20 7 21 20 5 14 -19 91 -50
100 -41 2 3 -6 17 -20 32 -34 36 -77 126 -76 159 0 15 2 52 3 82 2 64 -14 117
-52 175 -14 22 -34 56 -44 75 -41 83 -146 121 -240 88z"/>
<path d="M701 3474 c-11 -15 -18 -31 -15 -36 3 -5 1 -15 -6 -23 -9 -10 -5 -15
21 -20 22 -5 34 -3 40 6 14 22 10 39 -8 39 -12 0 -9 6 11 23 14 13 23 26 20
30 -15 15 -43 6 -63 -19z"/>
<path d="M675 3263 c-28 -7 -39 -19 -32 -37 6 -14 10 -14 41 2 59 29 54 50 -9
35z"/>
<path d="M247 2973 c-10 -9 -7 -114 3 -138 6 -13 9 7 9 63 1 82 0 88 -12 75z"/>
<path d="M883 2863 c-9 -3 -13 -31 -13 -89 l0 -84 50 0 50 0 1 38 c1 20 3 56
4 78 3 36 0 43 -21 53 -26 11 -50 13 -71 4z"/>
<path d="M111 2844 c0 -11 3 -14 6 -6 3 7 2 16 -1 19 -3 4 -6 -2 -5 -13z"/>
<path d="M260 2773 c0 -5 5 -15 10 -23 8 -12 10 -11 10 8 0 12 -4 22 -10 22
-5 0 -10 -3 -10 -7z"/>
<path d="M642 2153 c-7 -27 -15 -74 -18 -105 -8 -66 -22 -85 -53 -68 -12 6
-51 13 -89 17 -67 6 -111 21 -145 51 -36 31 -42 3 -42 -186 1 -236 16 -416 38
-440 9 -10 17 -26 17 -35 0 -9 3 -17 8 -17 4 0 30 -21 57 -46 63 -58 95 -63
199 -34 58 16 81 19 91 10 49 -40 246 17 345 101 l35 30 2 137 c1 75 4 153 8
172 5 27 3 39 -9 49 -14 12 -16 7 -16 -53 0 -36 -4 -66 -9 -66 -29 0 -22 172
10 248 22 50 24 117 7 173 -10 34 -28 54 -28 30 0 -19 -269 -139 -288 -127 -4
2 -17 32 -28 65 -10 34 -22 61 -26 61 -5 0 -8 6 -8 13 0 21 -24 67 -36 67 -5
0 -16 -21 -22 -47z m-202 -793 c0 -5 -5 -10 -11 -10 -5 0 -7 5 -4 10 3 6 8 10
11 10 2 0 4 -4 4 -10z m44 -31 c-3 -5 -10 -7 -15 -3 -5 3 -7 10 -3 15 3 5 10
7 15 3 5 -3 7 -10 3 -15z m53 -15 c-3 -3 -12 -4 -19 -1 -8 3 -5 6 6 6 11 1 17
-2 13 -5z"/>
<path d="M1131 1704 c0 -11 3 -14 6 -6 3 7 2 16 -1 19 -3 4 -6 -2 -5 -13z"/>
<path d="M547 599 c-43 -23 -55 -43 -37 -64 9 -11 4 -29 -26 -90 -29 -58 -37
-88 -37 -128 0 -100 19 -140 71 -150 36 -7 92 18 99 43 6 24 38 26 61 4 23
-23 109 -15 149 15 27 20 31 30 36 84 3 34 2 68 -3 77 -4 8 -14 50 -20 94 -12
71 -16 80 -44 97 -17 10 -45 19 -62 19 -24 0 -33 -6 -46 -32 l-16 -33 -12 33
c-7 19 -23 37 -37 43 -31 12 -31 12 -76 -12z"/>
</g>
</svg>
