<?xml version="1.0" standalone="no"?>
<!DOCTYPE svg PUBLIC "-//W3C//DTD SVG 20010904//EN"
 "http://www.w3.org/TR/2001/REC-SVG-20010904/DTD/svg10.dtd">
<svg version="1.0" xmlns="http://www.w3.org/2000/svg"
 width="310.000000pt" height="468.000000pt" viewBox="0 0 310.000000 468.000000"
 preserveAspectRatio="xMidYMid meet">

<g transform="translate(0.000000,468.000000) scale(0.100000,-0.100000)"
fill="#000000" stroke="none">
<path d="M2700 4400 l0 -30 20 20 c22 22 29 24 48 11 11 -6 7 -15 -16 -39 -22
-22 -33 -27 -41 -19 -8 8 -11 -1 -11 -35 l0 -46 50 0 50 0 0 84 0 84 -50 0
c-49 0 -50 -1 -50 -30z m90 -105 c0 -8 -16 -13 -40 -13 -28 -1 -40 3 -40 14 0
10 11 13 40 12 24 -1 40 -6 40 -13z"/>
<path d="M1048 4307 c6 -7 13 -49 15 -92 l3 -80 2 93 c2 79 0 92 -14 92 -12 0
-14 -3 -6 -13z"/>
<path d="M1648 4308 c7 -7 13 -45 14 -92 1 -71 2 -75 7 -31 9 77 2 135 -17
135 -12 0 -13 -3 -4 -12z"/>
<path d="M541 4259 c25 -39 30 -57 26 -85 -4 -23 -2 -34 6 -34 12 0 18 80 7
90 -17 16 -40 62 -35 70 3 6 -3 10 -14 10 -20 0 -19 -3 10 -51z"/>
<path d="M1201 4287 c14 -12 47 -48 74 -81 27 -32 51 -53 53 -46 2 6 -2 17
-10 23 -8 7 -36 38 -62 70 -27 31 -56 57 -65 57 -12 -1 -10 -6 10 -23z"/>
<path d="M1325 4300 c3 -5 8 -10 11 -10 2 0 4 5 4 10 0 6 -5 10 -11 10 -5 0
-7 -4 -4 -10z"/>
<path d="M1868 4225 c2 -47 7 -85 12 -85 5 0 10 38 12 85 2 70 0 85 -12 85
-12 0 -14 -15 -12 -85z"/>
<path d="M1998 4225 c2 -47 7 -85 12 -85 5 0 10 38 12 85 2 70 0 85 -12 85
-12 0 -14 -15 -12 -85z"/>
<path d="M657 4208 c7 -60 10 -68 30 -68 17 1 17 1 1 11 -13 7 -18 23 -18 54
0 25 -4 45 -9 45 -5 0 -7 -19 -4 -42z"/>
<path d="M733 4200 c0 -28 3 -53 8 -56 5 -3 9 20 9 50 0 31 -4 56 -8 56 -5 0
-9 -23 -9 -50z"/>
<path d="M800 4246 c0 -2 11 -27 23 -56 16 -36 26 -49 32 -41 4 7 3 16 -2 20
-6 3 -16 23 -24 44 -7 20 -17 37 -21 37 -4 0 -8 -2 -8 -4z"/>
<path d="M988 4195 c2 -30 7 -55 12 -55 9 0 1 91 -9 102 -3 4 -4 -17 -3 -47z"/>
<path d="M1470 4231 c7 -13 9 -38 6 -55 -5 -29 -5 -30 9 -12 20 26 19 39 -6
67 l-20 24 11 -24z"/>
<path d="M1588 4195 c2 -30 7 -55 12 -55 9 0 1 91 -9 102 -3 4 -4 -17 -3 -47z"/>
<path d="M1722 4238 c10 -8 19 -31 21 -58 3 -38 4 -36 3 10 -1 47 -4 55 -21
58 -18 4 -19 3 -3 -10z"/>
<path d="M2128 4203 c2 -27 9 -52 14 -58 8 -7 9 -4 4 8 -3 10 -6 36 -6 58 0
21 -3 39 -8 39 -4 0 -6 -21 -4 -47z"/>
<path d="M2199 4246 c-7 -7 3 -106 11 -106 4 0 8 25 8 55 0 49 -5 64 -19 51z"/>
<path d="M2346 4239 c6 -8 11 -31 10 -52 -1 -21 2 -41 7 -44 4 -3 7 19 5 48
-2 36 -8 54 -18 57 -12 4 -13 2 -4 -9z"/>
<path d="M2427 4203 c7 -71 11 -75 12 -10 1 31 -3 57 -8 57 -5 0 -6 -21 -4
-47z"/>
<path d="M2475 4240 c3 -5 8 -10 11 -10 2 0 4 5 4 10 0 6 -5 10 -11 10 -5 0
-7 -4 -4 -10z"/>
<path d="M2519 4246 c-8 -8 3 -106 12 -106 11 0 12 80 1 98 -5 7 -10 10 -13 8z"/>
<path d="M1392 4228 c-16 -16 -15 -53 1 -66 9 -8 12 0 12 34 0 24 0 44 0 44
-1 0 -6 -5 -13 -12z"/>
<path d="M931 4176 c-9 -10 -8 -16 4 -26 9 -7 18 -10 22 -6 3 3 1 6 -6 6 -8 0
-11 8 -8 20 6 24 4 25 -12 6z"/>
<path d="M1534 4175 c-7 -17 3 -35 19 -35 8 0 7 3 -2 9 -8 5 -11 16 -8 25 4 9
4 16 1 16 -2 0 -7 -7 -10 -15z"/>
<path d="M2074 4175 c-7 -17 3 -35 18 -35 7 0 6 5 -2 15 -6 8 -9 19 -5 25 3 5
4 10 0 10 -3 0 -8 -7 -11 -15z"/>
<path d="M2294 4175 c-6 -15 2 -35 14 -35 4 0 7 11 7 25 0 27 -12 33 -21 10z"/>
<path d="M1468 3727 c-7 -8 -18 -12 -23 -10 -40 12 -89 -106 -60 -142 9 -11
14 -13 10 -5 -4 8 3 3 15 -12 14 -18 27 -25 38 -21 13 5 14 3 5 -7 -12 -13 -7
-37 14 -58 7 -8 10 -18 7 -24 -5 -7 0 -9 14 -6 25 7 28 -1 10 -21 -7 -8 -8
-11 -2 -8 6 3 25 9 42 12 25 4 32 2 32 -11 0 -14 3 -14 15 -4 12 10 19 10 27
2 8 -8 17 -8 31 0 15 7 22 7 29 -3 6 -9 7 -5 3 11 -4 18 0 31 13 43 19 17 19
18 1 55 -11 20 -17 44 -14 53 10 31 -6 69 -31 75 -13 3 -24 13 -24 21 0 8 5
11 10 8 6 -3 10 -1 10 5 0 7 -6 10 -12 7 -7 -2 -28 6 -47 19 -19 13 -39 20
-45 17 -6 -4 -6 -8 2 -11 7 -2 -2 -12 -20 -22 -18 -9 -38 -15 -44 -13 -12 4
-27 -12 -30 -34 -1 -7 2 -13 8 -13 6 0 6 -6 -2 -15 -6 -8 -9 -19 -5 -24 3 -7
0 -8 -10 -5 -8 4 -21 16 -27 27 -9 18 -6 24 18 46 16 13 28 28 27 32 -1 4 4
10 12 13 8 3 14 2 14 -2 -3 -19 2 -23 15 -13 14 12 11 51 -4 51 -5 0 -15 -6
-22 -13z m197 -116 c3 -5 1 -12 -5 -16 -5 -3 -10 1 -10 9 0 18 6 21 15 7z
m-15 -175 c0 -2 -7 -6 -15 -10 -8 -3 -15 -1 -15 4 0 6 7 10 15 10 8 0 15 -2
15 -4z"/>
<path d="M1415 3640 c-3 -5 -1 -10 4 -10 6 0 11 5 11 10 0 6 -2 10 -4 10 -3 0
-8 -4 -11 -10z"/>
<path d="M334 3341 c-45 -27 -64 -59 -64 -106 0 -58 23 -88 130 -169 78 -59
97 -78 104 -108 12 -48 -6 -90 -48 -113 -64 -34 -151 7 -183 86 -8 22 -19 39
-24 39 -5 0 -9 -31 -9 -70 l0 -69 38 -10 c62 -18 172 -14 212 8 51 26 80 74
80 130 0 61 -20 89 -116 162 -112 86 -124 98 -124 131 0 41 14 63 49 78 64 26
125 -7 152 -82 7 -21 17 -38 21 -38 4 0 8 29 8 65 l0 64 -37 10 c-62 18 -154
13 -189 -8z"/>
<path d="M1073 3180 c-24 -10 -43 -21 -43 -24 0 -3 14 -12 30 -21 l30 -16 0
-228 c0 -126 -3 -236 -6 -245 -3 -9 -14 -16 -24 -16 -11 0 -22 -4 -25 -10 -4
-6 32 -10 100 -10 68 0 104 4 100 10 -3 6 -17 10 -30 10 -51 0 -55 6 -55 96
l0 84 48 0 c106 0 187 51 216 137 21 60 20 99 -3 149 -22 49 -61 81 -107 90
-43 8 -71 1 -117 -30 l-37 -25 0 34 c0 42 -14 44 -77 15z m233 -58 c70 -56 71
-226 2 -263 -25 -14 -95 -14 -130 0 l-28 11 0 114 c0 113 0 115 28 135 34 25
99 27 128 3z"/>
<path d="M763 3177 c-45 -17 -93 -61 -93 -86 0 -12 4 -21 9 -21 14 0 41 30 41
45 0 15 49 45 74 45 41 0 92 -93 69 -126 -5 -6 -46 -24 -93 -40 -69 -24 -87
-34 -98 -57 -17 -35 -9 -71 23 -103 32 -32 61 -30 118 6 l47 29 15 -29 c16
-32 30 -33 95 -7 l25 9 -28 13 c-16 6 -33 18 -38 26 -5 8 -9 67 -9 131 0 107
-2 119 -23 143 -26 31 -85 41 -134 22z m105 -225 c2 -31 -2 -46 -17 -61 -60
-60 -159 -22 -122 47 11 20 106 64 126 58 6 -1 11 -21 13 -44z"/>
<path d="M1538 3168 c-27 -11 -48 -24 -48 -29 0 -4 12 -14 28 -21 27 -13 27
-13 30 -132 3 -123 -3 -146 -39 -146 -10 0 -21 -4 -24 -10 -4 -6 28 -10 89
-10 94 0 126 12 66 23 l-30 6 -2 167 c-2 101 -7 168 -13 170 -5 1 -31 -7 -57
-18z"/>
<path d="M1820 3171 c-79 -42 -116 -191 -68 -280 29 -55 76 -81 142 -81 51 0
123 28 147 56 20 24 3 26 -37 5 -21 -12 -56 -21 -77 -21 -76 0 -120 48 -133
144 l-7 46 114 0 c144 0 149 4 123 67 -14 35 -29 53 -54 65 -45 23 -106 22
-150 -1z m133 -33 c10 -12 17 -31 15 -42 -3 -19 -11 -21 -85 -24 -46 -2 -83 0
-83 4 0 20 34 73 53 82 31 16 79 6 100 -20z"/>
<path d="M2158 3168 c-27 -11 -48 -24 -48 -29 0 -4 12 -14 28 -21 27 -13 27
-14 30 -126 3 -119 -5 -152 -38 -152 -11 0 -20 -4 -20 -10 0 -6 37 -10 90 -10
50 0 90 2 90 6 0 3 -13 10 -29 15 -21 7 -30 19 -35 41 -9 43 -7 201 2 215 11
18 77 43 109 43 62 -1 83 -44 83 -171 0 -97 -10 -129 -40 -129 -10 0 -22 -4
-25 -10 -4 -6 27 -10 84 -10 50 0 91 4 91 9 0 5 -10 11 -22 13 -22 3 -23 7
-28 144 -6 151 -10 163 -61 190 -40 20 -62 18 -129 -16 l-60 -30 -6 30 c-7 35
-5 34 -66 8z"/>
<path d="M2653 3176 c-38 -17 -53 -43 -53 -89 0 -38 21 -60 115 -120 60 -39
78 -76 50 -107 -39 -43 -134 -14 -149 45 -11 44 -26 27 -26 -29 0 -61 6 -66
93 -66 92 0 147 41 147 110 0 45 -20 67 -111 126 -53 33 -69 49 -69 67 0 33
18 47 62 47 39 0 57 -12 90 -60 l17 -25 0 40 c1 22 -3 46 -8 54 -13 21 -118
25 -158 7z"/>
<path d="M958 2323 c8 -3 12 -35 12 -108 0 -73 -4 -105 -12 -108 -7 -3 5 -6
27 -6 22 0 35 3 29 7 -11 7 -24 92 -14 92 3 0 3 27 2 60 l-4 60 30 0 c39 0 66
-31 58 -66 -4 -14 -16 -28 -26 -31 -11 -3 -20 -8 -20 -11 0 -3 18 -29 40 -59
28 -36 48 -53 63 -53 21 0 21 0 1 14 -11 8 -33 33 -49 56 l-28 41 21 15 c27
19 29 65 4 87 -14 12 -36 17 -83 16 -35 0 -58 -3 -51 -6z"/>
<path d="M1200 2315 c0 -8 5 -15 10 -15 6 0 10 7 10 15 0 8 -4 15 -10 15 -5 0
-10 -7 -10 -15z"/>
<path d="M2064 2268 c-11 -18 -5 -140 8 -155 13 -16 45 -17 54 -1 4 7 3 8 -5
4 -27 -17 -42 15 -39 85 2 69 -3 91 -18 67z"/>
<path d="M1624 2245 c10 -11 15 -33 14 -68 -2 -51 5 -77 21 -77 10 0 1 133
-11 148 -6 6 -17 12 -25 12 -12 0 -12 -2 1 -15z"/>
<path d="M1954 2245 c11 -11 15 -33 14 -70 -2 -59 13 -88 34 -67 9 9 9 12 0
12 -8 0 -12 20 -12 58 0 57 -11 82 -38 82 -11 0 -10 -3 2 -15z"/>
<path d="M1185 2240 c-3 -5 -1 -10 4 -10 16 0 14 -117 -1 -123 -7 -3 3 -5 22
-5 19 0 29 2 23 5 -9 3 -13 28 -13 74 0 53 -3 69 -14 69 -8 0 -18 -4 -21 -10z"/>
<path d="M1295 2223 c8 -16 23 -50 35 -78 l22 -50 15 28 c8 16 12 31 9 35 -3
3 -6 0 -6 -6 0 -7 -4 -12 -8 -12 -10 0 -45 74 -45 95 0 8 -8 15 -18 15 -16 0
-16 -3 -4 -27z"/>
<path d="M1389 2232 c6 -11 6 -24 -1 -36 -5 -9 -7 -20 -4 -23 3 -4 6 -1 6 5 0
26 21 10 36 -28 19 -47 27 -49 42 -15 16 35 15 43 -2 20 -12 -17 -15 -15 -35
29 -11 27 -21 52 -21 57 0 5 -7 9 -15 9 -12 0 -13 -4 -6 -18z"/>
<path d="M1495 2240 c3 -5 8 -10 11 -10 2 0 4 5 4 10 0 6 -5 10 -11 10 -5 0
-7 -4 -4 -10z"/>
<path d="M1720 2246 c0 -2 13 -36 30 -75 16 -39 27 -79 24 -89 -2 -9 3 -2 11
16 13 28 13 35 1 47 -7 8 -20 34 -27 59 -7 26 -19 46 -26 46 -7 0 -13 -2 -13
-4z"/>
<path d="M1561 2151 c-7 -13 -6 -24 3 -37 11 -15 18 -16 37 -7 l24 12 -24 0
c-19 1 -23 5 -19 26 6 29 -7 33 -21 6z"/>
<path d="M1891 2151 c-7 -13 -6 -24 3 -37 11 -15 18 -16 37 -7 23 11 23 12 3
12 -25 1 -37 24 -21 40 8 8 8 11 -1 11 -6 0 -16 -8 -21 -19z"/>
<path d="M1757 2045 c-4 -8 -16 -15 -27 -15 -11 0 -20 -4 -20 -10 0 -19 39
-10 50 11 7 11 10 23 7 25 -2 3 -7 -2 -10 -11z"/>
<path d="M1650 1878 c-22 -8 -23 -10 -7 -19 14 -8 17 -25 17 -107 0 -63 -4
-102 -12 -110 -9 -9 -4 -12 22 -12 26 0 31 3 22 12 -15 15 -16 58 -2 58 17 0
62 -49 55 -60 -4 -6 8 -10 29 -10 l35 0 -45 43 c-51 47 -51 68 -3 93 38 19 37
24 -6 24 -27 0 -33 -3 -28 -15 5 -15 -22 -55 -38 -55 -5 0 -10 38 -11 84 l-3
83 -25 -9z"/>
<path d="M1037 1858 c-31 -11 -44 -46 -28 -75 5 -11 28 -32 50 -47 46 -32 55
-50 41 -77 -18 -32 -56 -29 -87 9 l-23 27 0 -31 c0 -28 4 -33 33 -38 47 -9 96
10 103 40 10 40 -4 67 -52 102 -33 25 -44 39 -42 55 5 33 56 36 80 5 l18 -23
0 22 c0 12 -3 24 -7 26 -21 11 -61 14 -86 5z"/>
<path d="M1187 1854 c-8 -8 1 -24 14 -24 5 0 9 7 9 15 0 15 -12 20 -23 9z"/>
<path d="M2005 1790 c-10 -11 -13 -20 -7 -20 8 0 12 -20 12 -54 0 -30 3 -61 6
-70 7 -18 59 -22 69 -6 4 6 -5 10 -19 10 -25 0 -26 2 -26 60 0 57 1 60 25 60
14 0 25 5 25 10 0 6 -11 10 -25 10 -14 0 -25 5 -25 10 0 16 -15 12 -35 -10z"/>
<path d="M1176 1777 c-17 -12 -17 -14 -2 -20 19 -8 23 -96 4 -115 -9 -9 -4
-12 22 -12 26 0 31 3 22 12 -7 7 -12 40 -12 80 0 71 -4 77 -34 55z"/>
<path d="M1266 1777 c-17 -12 -17 -14 -2 -20 19 -8 23 -96 4 -115 -9 -9 -4
-12 22 -12 26 0 31 3 22 12 -7 7 -12 33 -12 60 0 46 16 68 49 68 35 0 58 -99
29 -128 -9 -9 -5 -12 21 -12 26 0 31 3 23 13 -6 7 -12 39 -14 71 -4 71 -20 87
-70 68 -21 -8 -34 -9 -36 -2 -5 14 -15 13 -36 -3z"/>
<path d="M1487 1772 c-22 -24 -22 -60 0 -84 16 -18 16 -19 -5 -25 -25 -6 -27
-14 -9 -32 10 -10 8 -15 -6 -26 -42 -30 9 -80 72 -71 48 7 81 32 81 61 0 30
-26 45 -79 45 -53 0 -52 14 3 39 42 18 64 49 51 71 -3 5 1 10 9 10 8 0 18 5
22 11 5 8 -1 10 -20 7 -14 -3 -29 -1 -32 3 -10 16 -70 10 -87 -9z m73 -13 c7
-11 9 -32 6 -45 -9 -34 -53 -33 -66 2 -20 51 35 90 60 43z m36 -164 c13 -34
-46 -62 -93 -44 -22 8 -31 38 -16 52 3 4 28 7 55 7 34 0 50 -4 54 -15z"/>
<path d="M1849 1771 c-14 -11 -20 -23 -15 -28 5 -4 11 -2 13 5 8 22 43 35 59
21 25 -21 16 -47 -20 -59 -43 -14 -60 -33 -51 -60 7 -22 35 -26 66 -10 13 7
19 7 19 0 0 -5 9 -10 20 -10 21 0 27 15 10 25 -5 3 -10 32 -10 65 0 43 -4 59
-16 64 -28 11 -51 7 -75 -13z m71 -91 c0 -18 -18 -30 -46 -30 -23 0 -16 36 9
47 27 13 37 8 37 -17z"/>
<path d="M418 1388 c7 -7 12 -44 12 -95 0 -76 2 -86 25 -108 18 -19 35 -25 70
-25 35 0 52 6 70 25 23 22 25 32 25 108 0 51 5 88 12 95 9 9 3 12 -27 11 -22
-1 -32 -3 -23 -6 24 -6 31 -40 26 -120 -3 -55 -8 -69 -28 -85 -29 -24 -87 -19
-107 9 -18 23 -18 189 0 196 6 3 -6 6 -27 6 -31 1 -37 -2 -28 -11z"/>
<path d="M1393 1389 c14 -8 17 -25 17 -109 0 -84 -3 -101 -17 -109 -14 -8 -10
-10 22 -10 32 0 36 2 23 10 -15 8 -18 24 -18 89 0 44 3 80 8 80 4 0 24 -38 46
-85 21 -47 42 -85 46 -85 4 0 27 39 51 88 l44 87 3 -84 c2 -61 -1 -87 -10 -92
-8 -5 5 -9 32 -9 35 1 41 3 28 11 -15 8 -18 25 -18 109 0 84 3 101 18 109 14
9 12 10 -13 11 -29 0 -34 -6 -79 -97 l-48 -98 -46 98 c-43 92 -46 97 -76 97
-26 -1 -28 -2 -13 -11z"/>
<path d="M2450 1385 c0 -8 7 -15 15 -15 8 0 15 7 15 15 0 8 -7 15 -15 15 -8 0
-15 -7 -15 -15z"/>
<path d="M1180 1335 c-7 -8 -8 -19 -3 -27 4 -7 10 -42 13 -78 5 -68 18 -82 58
-64 14 6 13 8 -8 13 -23 6 -25 12 -28 69 -3 62 -3 62 25 63 25 2 25 2 5 6 -13
3 -26 11 -29 19 -7 18 -17 18 -33 -1z"/>
<path d="M761 1319 c-13 -5 -32 -7 -42 -4 -10 4 -26 2 -35 -3 -15 -8 -15 -10
0 -15 24 -9 23 -112 -1 -126 -14 -8 -8 -10 27 -10 35 0 41 2 28 10 -14 7 -18
23 -18 63 0 50 2 54 30 66 44 18 60 1 60 -66 0 -40 -4 -56 -17 -63 -14 -8 -9
-10 25 -11 40 0 42 1 28 16 -10 9 -16 33 -16 59 0 37 5 47 26 62 39 25 58 8
62 -56 2 -30 -2 -59 -9 -67 -10 -12 -5 -14 27 -13 22 0 33 3 27 6 -8 3 -13 26
-13 63 0 42 -5 64 -19 81 -19 23 -19 23 -56 6 -33 -16 -38 -16 -58 -2 -24 17
-24 17 -56 4z"/>
<path d="M1045 1320 c-24 -9 -52 -40 -37 -40 5 0 13 7 16 16 4 10 15 14 33 12
21 -2 29 -9 31 -28 2 -22 -3 -27 -40 -40 -35 -12 -43 -20 -43 -39 0 -33 29
-50 56 -33 16 10 24 10 35 1 7 -6 22 -8 31 -5 11 5 14 10 7 14 -6 4 -13 34
-16 66 -4 42 -10 63 -23 72 -21 16 -22 16 -50 4z m45 -104 c0 -23 -16 -36 -46
-36 -20 0 -17 37 4 49 28 17 42 13 42 -13z"/>
<path d="M1748 1314 c-16 -8 -28 -19 -28 -24 0 -16 17 -12 24 5 7 20 52 19 60
-1 11 -28 7 -34 -39 -54 -37 -16 -45 -24 -45 -45 0 -32 23 -42 58 -26 18 9 28
9 30 2 4 -13 39 -15 46 -2 3 5 -1 11 -9 15 -11 4 -15 21 -15 65 0 49 -4 62
-19 71 -25 13 -30 12 -63 -6z m62 -92 c0 -23 -19 -42 -41 -42 -29 0 -34 22 -9
42 28 23 50 23 50 0z"/>
<path d="M1970 1320 c-8 -6 -26 -8 -40 -5 -29 6 -59 -8 -41 -19 16 -10 14
-123 -1 -129 -7 -3 5 -5 27 -5 22 0 34 2 28 5 -9 3 -13 26 -13 63 0 49 3 61
20 70 28 15 56 4 64 -23 12 -45 6 -96 -11 -106 -15 -8 -10 -10 22 -11 30 0 36
3 27 12 -7 7 -12 38 -12 69 0 75 -28 106 -70 79z"/>
<path d="M2323 1320 c-36 -15 -30 -55 12 -82 36 -24 49 -43 39 -59 -9 -15 -54
-10 -60 6 -9 22 -24 18 -24 -5 0 -16 7 -20 36 -20 83 0 101 52 34 96 -42 28
-50 48 -24 58 22 8 21 9 44 -16 22 -24 26 -18 10 13 -11 20 -32 23 -67 9z"/>
<path d="M2575 1320 c-24 -9 -52 -40 -37 -40 5 0 13 7 16 16 4 10 15 14 33 12
21 -2 29 -9 31 -28 2 -22 -3 -27 -40 -40 -35 -12 -43 -20 -43 -39 0 -33 29
-50 56 -33 16 10 24 10 35 1 7 -6 22 -8 31 -5 11 5 14 10 7 14 -6 4 -13 34
-16 66 -4 42 -10 63 -23 72 -21 16 -22 16 -50 4z m45 -104 c0 -23 -16 -36 -46
-36 -20 0 -17 37 4 49 28 17 42 13 42 -13z"/>
<path d="M2088 1313 c7 -3 12 -25 12 -59 0 -31 5 -64 10 -75 12 -21 50 -25 81
-9 13 7 19 7 19 0 0 -13 37 -13 45 0 3 6 1 10 -4 10 -7 0 -11 27 -11 70 0 70
0 70 -27 69 -16 0 -22 -3 -15 -6 8 -3 12 -26 12 -64 0 -54 -2 -59 -25 -65 -46
-12 -55 0 -55 71 0 64 0 65 -27 64 -16 0 -22 -3 -15 -6z"/>
<path d="M2435 1311 c-3 -5 -1 -12 5 -16 15 -9 13 -122 -2 -128 -7 -3 5 -5 27
-5 22 0 34 2 28 5 -9 3 -13 29 -13 79 0 67 -2 74 -19 74 -11 0 -22 -4 -26 -9z"/>
<path d="M842 550 c0 -14 2 -19 5 -12 2 6 2 18 0 25 -3 6 -5 1 -5 -13z"/>
<path d="M942 550 c0 -14 2 -19 5 -12 2 6 2 18 0 25 -3 6 -5 1 -5 -13z"/>
</g>
</svg>
