<?xml version="1.0" standalone="no"?>
<!DOCTYPE svg PUBLIC "-//W3C//DTD SVG 20010904//EN"
 "http://www.w3.org/TR/2001/REC-SVG-20010904/DTD/svg10.dtd">
<svg version="1.0" xmlns="http://www.w3.org/2000/svg"
 width="306.000000pt" height="442.000000pt" viewBox="0 0 306.000000 442.000000"
 preserveAspectRatio="xMidYMid meet">

<g transform="translate(0.000000,442.000000) scale(0.100000,-0.100000)"
fill="#000000" stroke="none">
<path d="M110 4391 c-8 -4 -28 -14 -45 -22 l-30 -15 -10 -131 c-5 -72 -13
-135 -17 -139 -12 -11 -10 -94 2 -94 14 0 12 -37 -2 -43 -10 -3 -10 -9 0 -26
15 -25 17 -197 2 -206 -14 -9 -12 -195 2 -250 10 -36 10 -50 0 -65 -14 -24
-16 -116 -2 -125 6 -4 7 -13 1 -24 -12 -21 -15 -1731 -4 -1731 5 0 32 19 61
43 28 24 69 49 89 56 21 8 51 23 67 34 39 27 90 53 120 61 21 5 23 3 19 -22
-3 -15 -8 -36 -13 -47 -32 -79 -33 -136 -6 -242 10 -36 11 -54 3 -62 -6 -6 -7
-14 -3 -18 4 -4 11 -1 16 7 5 8 10 12 12 10 19 -30 26 -52 22 -71 -2 -13 -2
-18 2 -11 8 16 19 15 39 -5 19 -19 15 -22 60 61 11 21 37 48 57 59 32 19 39
20 62 8 28 -15 42 -49 52 -122 l7 -49 41 62 c22 34 50 65 62 69 47 16 111 -43
135 -123 25 -85 5 -265 -39 -357 -25 -53 -99 -124 -123 -118 -10 3 -21 1 -24
-3 -16 -26 103 -271 151 -311 22 -18 29 -3 11 24 -14 22 -14 26 0 40 15 15 15
16 -4 11 -16 -5 -27 3 -47 32 -14 21 -26 51 -26 66 0 15 -4 30 -10 33 -5 3
-10 17 -10 30 0 13 -4 27 -10 30 -18 11 -11 21 23 33 42 15 101 73 117 114 7
18 16 42 20 53 16 39 21 59 30 126 6 43 17 76 28 87 18 18 19 18 40 -14 12
-18 19 -39 16 -47 -4 -10 3 -13 28 -9 18 2 38 9 45 14 7 5 17 7 22 4 16 -10
20 7 22 87 1 43 6 77 10 77 16 0 22 -51 17 -140 -3 -51 -1 -93 4 -98 6 -6 6
-12 0 -16 -6 -4 -3 -24 8 -54 16 -41 17 -56 8 -92 -12 -46 -76 -120 -103 -120
-8 0 -15 -4 -15 -10 0 -5 -8 -10 -17 -11 -10 0 -13 -3 -6 -5 20 -9 91 16 122
42 36 30 74 124 65 160 -5 20 0 30 27 52 18 15 52 43 75 64 24 20 56 39 72 42
15 4 40 18 55 31 14 14 30 25 35 25 5 0 17 -30 27 -66 13 -47 21 -64 31 -60 8
3 20 8 27 11 36 15 49 -107 28 -275 -5 -41 -8 -77 -5 -79 3 -3 16 7 30 22 28
30 44 28 44 -6 0 -29 -36 -87 -54 -87 -17 0 -51 -83 -42 -105 3 -9 -1 -18 -10
-22 -8 -3 -13 -12 -10 -20 5 -11 1 -11 -15 -2 -19 10 -20 8 -14 -11 6 -19 4
-21 -17 -15 -18 6 -21 5 -11 -5 10 -10 1 -21 -42 -52 -29 -21 -60 -38 -69 -38
-28 0 -121 -47 -145 -74 -14 -14 -19 -26 -13 -26 6 0 14 5 17 10 7 11 54 3 70
-11 5 -5 9 -24 10 -42 0 -37 19 -49 23 -15 2 13 6 30 9 38 3 8 5 25 4 36 -2
16 6 24 28 32 l31 11 0 -80 0 -79 770 0 770 0 0 531 0 531 -27 -5 c-16 -3 -55
-10 -88 -16 -37 -7 -83 -9 -120 -4 l-60 8 0 96 c0 92 -11 129 -36 129 -5 0 -9
-123 -9 -272 0 -256 -13 -487 -28 -515 -5 -8 -12 -9 -22 -3 -12 8 -15 53 -19
262 -2 169 -7 259 -15 269 -15 21 -82 31 -99 16 -23 -21 -57 -37 -57 -28 0 15
46 58 69 66 33 10 46 36 51 99 4 52 8 61 23 58 10 -2 27 8 37 21 11 14 32 28
47 32 15 3 48 23 73 43 24 20 49 36 53 34 13 -4 34 16 50 47 8 14 22 39 30 56
9 16 20 56 23 88 7 63 23 79 55 59 10 -7 27 -12 36 -12 10 0 -1 9 -24 20 -24
10 -43 25 -44 32 -2 22 3 63 8 72 3 5 5 50 4 100 -1 66 1 87 9 76 8 -12 9 -9
5 10 -24 107 -33 165 -28 173 8 13 -103 227 -141 270 -18 20 -39 56 -47 80
-29 90 -176 337 -225 377 -19 16 -18 27 6 60 19 26 20 35 10 92 -6 35 -13 79
-15 98 -10 94 -18 141 -26 146 -5 3 -9 12 -9 19 0 8 -12 40 -26 72 -37 82 -41
93 -54 143 -22 88 -28 105 -29 88 -1 -25 -21 -23 -21 1 0 11 -4 23 -10 26 -5
3 -10 12 -10 18 0 7 4 6 10 -3 5 -8 12 -11 16 -8 7 8 -11 61 -32 92 -13 19
-14 19 -24 -5 -9 -20 -10 -17 -5 20 5 41 4 43 -11 30 -16 -13 -17 -11 -12 14
3 15 1 30 -3 33 -5 3 -9 15 -9 27 0 16 -3 18 -12 9 -8 -8 -14 -6 -23 11 -66
124 -105 177 -196 267 -105 104 -198 150 -389 189 -19 4 -45 13 -56 19 -31 17
-124 26 -179 18 -32 -5 -58 -18 -83 -41 -28 -24 -47 -33 -73 -33 -20 0 -63
-14 -97 -31 -34 -17 -64 -31 -67 -31 -3 0 -5 41 -5 90 l0 90 -462 -1 c-255 0
-470 -4 -478 -8z m400 -20 c0 -6 -4 -13 -10 -16 -5 -3 -10 1 -10 9 0 9 5 16
10 16 6 0 10 -4 10 -9z m421 -270 c-8 -5 -12 -19 -9 -35 6 -29 -8 -37 -14 -8
-6 28 3 52 21 52 13 0 13 -2 2 -9z m189 -23 c0 -28 -3 -33 -25 -33 -20 0 -25
5 -25 26 0 30 7 39 32 39 14 0 18 -8 18 -32z m140 2 c0 -16 -4 -30 -9 -30 -13
0 -21 27 -15 45 10 25 24 17 24 -15z m336 13 c16 -21 18 -53 4 -53 -5 0 -10 5
-10 11 0 6 -9 8 -20 4 -23 -7 -24 -5 -8 30 13 30 17 30 34 8z m153 0 c7 -14
12 -15 23 -5 12 10 15 7 15 -18 0 -31 -14 -39 -35 -18 -10 10 -14 10 -21 0 -5
-8 -8 1 -9 23 -1 37 11 46 27 18z m167 3 c3 -8 12 -12 19 -10 15 6 30 -30 19
-47 -5 -8 -11 -6 -21 7 -11 15 -16 16 -22 6 -6 -10 -10 -8 -14 10 -4 12 -7 29
-7 36 0 17 19 15 26 -2z m-486 -46 c0 -20 -21 -9 -30 16 -14 35 -13 37 10 14
11 -11 20 -24 20 -30z m-466 -11 c-3 -5 -10 -7 -15 -3 -5 3 -7 10 -3 15 3 5
10 7 15 3 5 -3 7 -10 3 -15z m1323 -371 c-3 -7 -5 -2 -5 12 0 14 2 19 5 13 2
-7 2 -19 0 -25z m-814 -113 c156 -1 165 -3 252 -34 50 -18 106 -37 125 -43 39
-11 138 -82 147 -104 3 -8 9 -11 14 -8 5 3 9 -8 9 -24 0 -16 6 -35 14 -41 8
-7 17 -35 21 -64 5 -46 26 -133 43 -177 3 -8 4 -26 3 -40 -2 -22 1 -21 21 13
14 23 29 37 42 37 26 0 39 9 54 35 10 18 11 17 12 -10 0 -38 -31 -88 -86 -141
-31 -30 -44 -52 -49 -80 -4 -22 -10 -61 -15 -89 -5 -27 -15 -85 -22 -127 -6
-43 -15 -78 -18 -78 -4 0 -12 -16 -20 -35 -8 -19 -17 -35 -22 -35 -4 0 -8 -6
-8 -13 0 -7 -8 -22 -18 -33 -9 -10 -41 -52 -70 -91 -61 -83 -175 -192 -240
-231 -49 -28 -46 -32 32 -46 32 -6 38 -5 33 7 -4 10 3 17 19 21 14 4 23 12 22
19 -2 7 7 26 20 42 19 24 26 27 40 18 9 -6 16 -19 14 -29 -1 -11 -5 -43 -9
-72 -5 -44 -9 -52 -22 -46 -67 29 -106 -2 -54 -43 l28 -23 -36 0 c-20 0 -39
-3 -43 -7 -4 -4 -26 -6 -49 -5 -23 2 -63 -4 -89 -11 -58 -18 -58 -20 -56 121
0 88 3 101 15 91 18 -16 74 -19 91 -7 6 6 12 21 12 33 0 37 -55 64 -92 44 -14
-7 -18 -6 -18 6 0 8 9 15 20 15 11 0 30 9 43 21 60 55 137 135 137 142 0 4
-19 7 -42 7 -23 0 -70 5 -105 11 l-63 11 0 38 c0 52 8 69 29 63 19 -5 51 20
51 41 0 8 -12 11 -35 8 -40 -5 -42 -1 -70 114 -41 172 -87 290 -172 444 -123
223 -163 318 -163 381 0 23 5 28 34 33 18 4 41 4 50 0 11 -4 16 -1 16 12 0 15
5 13 30 -11 l30 -29 163 -1z m-387 17 c7 -4 26 -54 44 -112 18 -58 60 -159 94
-225 82 -159 82 -159 54 -152 -13 3 -68 21 -123 40 -58 20 -142 40 -200 47
l-100 13 1 96 c3 175 48 270 132 271 9 1 28 7 42 15 28 16 40 18 56 7z m1134
-228 c-6 -15 -20 -40 -31 -55 -19 -27 -19 -32 -6 -58 16 -32 13 -42 -20 -60
-21 -11 -23 -10 -23 16 0 30 14 91 31 134 8 21 31 41 56 48 1 1 -2 -11 -7 -25z
m9 -156 c-1 -41 -1 -42 -11 -15 -5 15 -7 34 -4 42 10 27 16 16 15 -27z m-1120
-129 c20 -6 47 -14 61 -18 15 -4 33 -3 42 3 12 7 21 6 32 -3 13 -11 16 -34 16
-106 0 -85 -2 -96 -25 -123 -30 -36 -95 -60 -185 -68 -87 -8 -129 10 -157 69
-37 76 -43 97 -43 147 0 46 3 51 33 67 75 41 158 53 226 32z m248 -115 c25
-70 73 -273 73 -308 0 -55 -8 -66 -48 -66 -22 0 -47 9 -68 25 -40 31 -46 31
-42 3 4 -30 73 -70 115 -65 29 3 32 0 37 -32 7 -46 0 -54 -43 -47 -24 3 -50
-1 -80 -14 -24 -11 -54 -20 -67 -20 -33 0 -30 -23 7 -54 23 -19 37 -25 53 -20
29 10 119 6 125 -5 4 -5 6 -58 6 -118 l0 -108 -47 1 c-51 0 -97 26 -172 98
-55 54 -158 194 -151 206 3 5 0 8 -7 5 -7 -3 -18 5 -24 17 -62 124 -74 150
-74 163 0 7 -4 17 -10 20 -5 3 -10 17 -10 30 0 13 -4 27 -10 30 -27 17 0 24
103 28 61 2 126 8 142 12 88 24 156 113 158 210 2 63 14 66 34 9z m220 -610
c5 -17 -48 -38 -58 -23 -13 21 2 40 29 37 14 -2 27 -8 29 -14z m-369 -254 c2
-25 -1 -88 -8 -140 -16 -130 -28 -456 -18 -505 6 -26 19 -50 41 -68 31 -27 31
-29 13 -43 -29 -20 -89 -18 -119 6 -48 38 -61 95 -54 238 6 126 11 157 48 322
10 47 19 91 19 98 0 21 -15 13 -27 -15 -76 -176 -109 -281 -136 -436 -28 -158
-40 -181 -82 -153 -14 9 -30 28 -35 42 -24 63 -4 259 45 444 13 52 25 106 25
120 0 43 -25 3 -49 -77 -13 -46 -29 -76 -41 -83 -30 -16 -33 17 -10 92 26 84
69 144 110 153 68 15 90 -56 59 -187 -30 -129 -21 -162 15 -57 63 185 135 303
180 297 17 -2 22 -11 24 -48z m1095 -4 c23 -23 39 -51 47 -86 17 -72 1 -145
-67 -304 -30 -71 -57 -144 -60 -163 -8 -46 -27 -36 -31 15 -3 42 13 103 67
252 55 153 36 298 -41 300 -27 0 -58 -48 -58 -91 0 -53 18 -86 52 -98 27 -9
29 -14 23 -38 -12 -48 -45 -51 -86 -7 -28 29 -37 114 -19 170 30 89 111 112
173 50z m-255 -331 c-3 -311 -3 -313 -58 -254 l-28 31 -41 -32 c-32 -26 -38
-35 -27 -44 15 -13 39 -87 43 -136 15 -177 15 -190 -10 -278 -14 -48 -39 -117
-56 -154 -29 -62 -31 -73 -31 -187 0 -101 2 -121 15 -121 20 0 20 -46 -1 -54
-46 -18 -68 1 -94 84 -17 51 -20 258 -7 383 8 72 7 77 -10 77 -11 0 -24 -5
-30 -11 -6 -6 -23 -9 -38 -7 -25 3 -30 9 -45 68 -19 74 -42 176 -65 300 -14
73 -15 86 -2 94 12 8 11 12 -6 29 -11 11 -15 23 -10 28 11 11 5 69 -7 69 -4 0
-15 -15 -24 -34 -18 -38 -78 -94 -123 -115 -15 -7 -36 -17 -45 -22 -29 -15
-41 -11 -69 23 -31 35 -43 85 -34 131 8 35 52 117 63 117 4 0 22 14 40 31 31
29 32 33 32 107 1 52 5 83 15 96 8 11 16 38 16 60 2 35 3 32 9 -19 4 -33 8
-89 9 -124 1 -56 5 -68 32 -99 26 -30 30 -40 24 -71 -4 -19 -11 -43 -16 -53
-17 -31 -77 -70 -119 -75 -41 -6 -54 -26 -24 -37 28 -11 46 -6 76 19 16 14 37
25 46 25 9 0 30 19 45 41 23 32 32 38 43 28 9 -7 14 -8 14 -1 0 6 -4 14 -10
17 -5 3 -10 23 -11 43 0 20 -4 46 -8 57 -5 11 -4 25 1 33 7 8 6 17 -2 27 -25
30 -5 42 81 49 45 4 111 14 148 22 89 19 94 18 88 -7 -4 -13 2 -29 13 -42 11
-11 17 -25 13 -30 -3 -6 -2 -7 4 -4 5 3 25 2 44 -2 50 -11 59 -5 60 42 0 67
25 188 40 197 8 6 18 2 27 -11 11 -16 13 -75 10 -304z m-558 -244 c0 -6 -4
-13 -10 -16 -5 -3 -10 1 -10 9 0 9 5 16 10 16 6 0 10 -4 10 -9z m457 -88 c-3
-10 -5 -2 -5 17 0 19 2 27 5 18 2 -10 2 -26 0 -35z m290 -17 c-9 -23 -35 -19
-43 6 -4 15 -1 26 12 35 17 12 20 11 28 -6 5 -11 6 -27 3 -35z m-1175 -58 c-9
-9 -12 -7 -12 12 0 19 3 21 12 12 9 -9 9 -15 0 -24z m352 10 c6 -22 7 -22 17
-5 10 18 12 18 30 1 10 -9 19 -24 19 -33 0 -9 7 -36 16 -61 8 -24 13 -53 10
-63 -3 -11 2 -26 10 -34 8 -8 11 -19 8 -24 -10 -17 -57 38 -50 58 4 10 4 14 0
10 -8 -7 -84 138 -84 160 0 21 17 15 24 -9z m732 -53 c43 -66 20 -247 -52
-403 -31 -69 -33 -80 -35 -193 -1 -107 1 -122 17 -134 15 -11 17 -18 8 -32 -6
-10 -21 -19 -33 -21 -80 -12 -110 162 -80 461 10 100 18 203 19 230 0 40 3 47
20 47 11 0 20 4 20 10 0 5 10 21 22 35 29 33 72 33 94 0z m-1166 -92 c0 -22
-2 -25 -10 -13 -13 20 -13 40 0 40 6 0 10 -12 10 -27z m1274 -62 c-4 -20 -12
-31 -24 -31 -13 0 -16 7 -12 32 3 18 10 37 16 44 16 18 27 -7 20 -45z m-1004
13 c0 -8 8 -14 18 -15 14 0 14 -2 -3 -8 -12 -5 -23 -4 -27 3 -11 16 -10 48 2
41 6 -3 10 -13 10 -21z m4 -90 c4 -14 2 -32 -4 -40 -7 -7 -9 -18 -5 -24 3 -5
2 -10 -4 -10 -14 0 -17 16 -13 61 5 45 17 51 26 13z m86 -4 l21 -29 -41 -45
c-65 -71 -119 -70 -61 1 18 21 31 49 31 64 0 15 6 30 13 32 6 3 13 6 14 6 1 1
11 -12 23 -29z m887 -250 c-2 -138 6 -165 41 -144 31 19 53 82 62 174 9 94 20
120 50 120 34 0 53 -59 48 -147 l-5 -81 23 14 c17 12 23 12 26 2 5 -14 -6 -39
-40 -85 -12 -17 -34 -78 -48 -135 -46 -180 -79 -228 -160 -231 -44 -2 -49 1
-71 32 -28 41 -30 95 -4 137 10 17 53 56 95 88 42 31 74 62 71 67 -4 5 -21 -2
-39 -16 -97 -74 -171 22 -151 197 9 76 27 120 57 140 41 28 48 9 45 -132z
m-517 -275 c0 -8 -2 -15 -4 -15 -2 0 -12 -3 -21 -7 -15 -5 -16 -3 -6 15 13 25
31 29 31 7z m935 -55 c6 -20 -9 -60 -23 -60 -24 0 -43 55 -25 73 13 14 42 6
48 -13z m-265 -104 c0 -8 -4 -17 -9 -21 -12 -7 -24 12 -16 25 9 15 25 12 25
-4z m-273 -18 c-3 -8 -6 -5 -6 6 -1 11 2 17 5 13 3 -3 4 -12 1 -19z"/>
<path d="M1090 4090 c0 -5 5 -10 10 -10 6 0 10 5 10 10 0 6 -4 10 -10 10 -5 0
-10 -4 -10 -10z"/>
<path d="M1750 3220 c-25 -10 -70 -28 -101 -40 -31 -11 -71 -33 -88 -48 l-33
-27 22 -28 c12 -15 28 -27 36 -27 18 0 18 -14 -1 -30 -11 -9 -15 -9 -15 -1 0
7 -4 9 -10 6 -16 -10 -12 -38 4 -32 10 4 16 -2 18 -21 3 -24 8 -27 43 -29 33
-2 36 -1 18 7 -25 10 -22 34 5 45 10 4 26 -5 45 -25 30 -32 57 -37 117 -20 47
13 111 66 103 86 -10 27 -66 47 -138 50 -85 2 -85 2 -85 12 0 24 194 75 264
70 53 -4 56 15 7 46 -33 21 -52 26 -103 25 -36 0 -82 -8 -108 -19z m80 -205
c0 -8 -7 -15 -15 -15 -8 0 -15 7 -15 15 0 8 7 15 15 15 8 0 15 -7 15 -15z"/>
<path d="M2002 2580 c0 -14 2 -19 5 -12 2 6 2 18 0 25 -3 6 -5 1 -5 -13z"/>
<path d="M1790 2160 c0 -5 5 -10 10 -10 6 0 10 5 10 10 0 6 -4 10 -10 10 -5 0
-10 -4 -10 -10z"/>
<path d="M1537 2123 c-16 -15 -5 -22 26 -16 47 8 57 23 16 23 -20 0 -39 -3
-42 -7z"/>
<path d="M1047 3020 c-58 -15 -77 -28 -77 -55 0 -28 51 -61 77 -50 14 5 13 9
-6 29 -14 15 -19 26 -12 30 6 4 20 -4 32 -18 21 -24 35 -26 102 -17 4 1 7 12
7 25 0 19 4 23 20 19 11 -3 27 -15 35 -26 13 -19 15 -19 21 -3 5 12 -2 26 -18
43 -20 19 -38 25 -84 28 -32 2 -76 0 -97 -5z"/>
<path d="M1365 2280 c3 -5 15 -10 26 -10 10 0 19 5 19 10 0 6 -12 10 -26 10
-14 0 -23 -4 -19 -10z"/>
<path d="M1620 1811 c0 -47 21 -84 37 -67 12 11 11 80 -1 99 -21 33 -36 20
-36 -32z"/>
<path d="M1911 1745 c-7 -22 -15 -75 -18 -117 -5 -67 -4 -78 11 -84 28 -11 34
5 41 106 5 76 4 99 -8 115 -14 18 -15 17 -26 -20z"/>
<path d="M1370 1710 c-42 -42 -50 -60 -26 -60 15 0 86 76 86 92 0 18 -22 6
-60 -32z"/>
<path d="M1745 1711 c3 -11 -1 -46 -10 -78 -28 -98 -29 -112 -9 -134 18 -20
18 -21 -8 -44 -28 -24 -27 -35 2 -35 42 0 91 86 60 105 -5 3 -10 -2 -10 -11 0
-11 -3 -14 -9 -9 -6 6 -3 44 9 98 20 98 17 127 -12 127 -15 0 -18 -5 -13 -19z"/>
<path d="M1623 1703 c-7 -2 -13 -13 -13 -23 0 -9 -6 -33 -14 -52 -18 -42 -7
-67 16 -41 18 21 48 104 41 116 -5 8 -12 8 -30 0z"/>
<path d="M1897 1243 c-2 -4 -9 -30 -15 -58 -38 -174 -38 -286 -1 -170 26 80
44 214 31 227 -5 5 -12 6 -15 1z"/>
<path d="M2110 1226 c-11 -30 -40 -197 -40 -233 0 -13 4 -23 9 -23 24 0 72
253 52 273 -7 7 -14 2 -21 -17z"/>
<path d="M2232 477 c-13 -13 -27 -38 -32 -56 -10 -35 -4 -64 11 -55 9 5 69
118 69 129 0 13 -29 3 -48 -18z"/>
<path d="M2794 4169 c-10 -17 13 -36 27 -22 12 12 4 33 -11 33 -5 0 -12 -5
-16 -11z"/>
<path d="M2736 4121 c-10 -16 3 -131 17 -152 19 -27 30 -9 16 27 -5 16 -7 49
-4 75 5 37 3 48 -9 52 -8 3 -18 3 -20 -2z"/>
<path d="M2699 4053 c-2 -5 -21 -19 -41 -32 -36 -21 -46 -39 -32 -54 4 -3 25
8 48 26 22 17 43 33 44 34 2 1 0 9 -6 19 -5 9 -11 13 -13 7z"/>
<path d="M2569 2833 c5 -10 21 -30 34 -44 13 -14 32 -43 43 -65 10 -21 24 -43
31 -47 7 -4 13 -14 13 -20 0 -7 9 -20 20 -30 25 -21 25 -20 -5 44 -34 73 -107
173 -129 177 -14 3 -16 0 -7 -15z"/>
<path d="M2727 2536 c-3 -8 1 -20 9 -27 8 -7 13 -18 10 -26 -7 -17 33 -75 46
-67 12 8 0 83 -18 112 -16 25 -39 29 -47 8z"/>
<path d="M246 1498 c7 -24 20 -68 29 -99 16 -59 39 -98 50 -87 9 8 -12 112
-31 158 -23 55 -30 65 -46 68 -14 3 -14 -2 -2 -40z"/>
<path d="M535 1243 c-9 -32 -23 -74 -30 -94 -8 -20 -11 -39 -8 -43 27 -27 60
32 70 125 8 79 -12 86 -32 12z"/>
<path d="M746 1227 c-45 -76 -85 -208 -86 -282 0 -30 7 -49 29 -75 25 -31 31
-33 52 -23 18 9 20 12 7 12 -32 2 -47 50 -38 116 13 89 21 117 41 147 11 14
19 31 19 38 0 7 11 25 25 42 20 23 23 33 15 49 -17 30 -37 23 -64 -24z"/>
<path d="M1080 1015 c-7 -8 -20 -15 -30 -15 -16 0 -17 -2 -2 -35 15 -32 42
-48 42 -25 0 6 7 10 15 10 8 0 15 7 15 16 0 13 -3 14 -14 5 -7 -6 -21 -8 -31
-4 -16 6 -15 9 9 28 16 13 24 25 18 29 -5 3 -15 -1 -22 -9z"/>
<path d="M1016 925 c4 -8 10 -15 15 -15 5 0 9 7 9 15 0 8 -7 15 -15 15 -9 0
-12 -6 -9 -15z"/>
<path d="M1098 866 c-44 -34 -74 -83 -66 -107 2 -6 14 0 28 16 14 15 39 42 56
59 32 33 49 66 35 66 -4 0 -28 -15 -53 -34z"/>
<path d="M1482 873 c-34 -91 -40 -215 -11 -221 13 -2 19 14 29 90 17 120 18
150 4 155 -6 2 -16 -9 -22 -24z"/>
<path d="M958 873 c7 -3 16 -2 19 1 4 3 -2 6 -13 5 -11 0 -14 -3 -6 -6z"/>
<path d="M390 860 c-2 -3 -7 -131 -11 -285 -7 -281 -12 -338 -33 -364 -14 -18
-25 116 -29 359 -3 163 -12 216 -28 174 -4 -10 -8 -36 -8 -56 -1 -44 -18 -51
-24 -10 -3 15 -2 -22 0 -83 3 -60 9 -119 14 -131 4 -11 11 -94 15 -184 6 -137
5 -162 -7 -158 -8 2 -16 22 -19 44 -3 25 -8 34 -13 26 -5 -7 -6 -20 -3 -30 8
-25 -8 -45 -40 -48 -15 -2 -34 -10 -43 -18 -14 -15 2 -16 160 -16 l175 0 23
40 22 40 -31 0 c-21 0 -39 -9 -55 -26 l-25 -27 0 26 c0 14 5 29 11 32 5 4 14
18 19 31 10 25 30 33 30 12 0 -6 3 -9 6 -6 3 4 1 15 -5 25 -8 16 -2 28 36 67
32 34 42 51 35 58 -8 8 -17 4 -30 -12 -18 -22 -21 -23 -36 -8 -10 11 -16 33
-16 62 0 25 -4 47 -9 50 -12 8 -21 -70 -14 -120 3 -26 1 -44 -6 -48 -6 -4 -11
-16 -11 -27 0 -10 -4 -19 -10 -19 -5 0 -10 -6 -10 -14 0 -8 -7 -17 -16 -20
-14 -5 -15 -1 -10 31 22 127 27 225 22 378 -5 150 -18 270 -26 255z"/>
<path d="M911 774 c0 -11 3 -14 6 -6 3 7 2 16 -1 19 -3 4 -6 -2 -5 -13z"/>
<path d="M1274 723 c-36 -82 -147 -183 -201 -183 -7 0 -13 -4 -13 -10 0 -27
93 4 134 45 14 14 29 25 35 25 17 0 70 70 80 107 14 48 14 60 1 68 -6 4 -22
-19 -36 -52z"/>
<path d="M1000 671 c0 -20 13 -41 25 -41 13 0 27 35 17 44 -9 10 -42 7 -42 -3z"/>
<path d="M666 512 c5 -110 3 -164 -4 -179 -10 -19 -9 -20 8 -16 31 8 39 33 42
119 3 81 -26 234 -44 234 -5 0 -6 -65 -2 -158z"/>
<path d="M1491 600 c-17 -28 -38 -53 -46 -56 -20 -8 -19 -24 1 -24 39 0 104
72 104 115 0 31 -29 14 -59 -35z"/>
<path d="M1240 575 c-7 -9 -10 -18 -7 -21 10 -11 37 5 37 21 0 19 -14 19 -30
0z"/>
<path d="M484 559 c-3 -6 -1 -16 5 -22 8 -8 11 -5 11 11 0 24 -5 28 -16 11z"/>
<path d="M990 512 c0 -5 7 -13 16 -16 10 -4 14 -1 12 6 -5 15 -28 23 -28 10z"/>
<path d="M1473 505 c-3 -9 -3 -18 0 -22 10 -10 37 6 37 22 0 20 -29 20 -37 0z"/>
<path d="M938 375 c-13 -37 -13 -45 -2 -45 18 0 47 45 42 66 -6 34 -26 24 -40
-21z"/>
<path d="M510 390 c0 -5 5 -10 10 -10 6 0 10 5 10 10 0 6 -4 10 -10 10 -5 0
-10 -4 -10 -10z"/>
<path d="M770 388 c0 -21 26 -53 33 -41 4 6 -2 21 -13 33 -14 16 -20 19 -20 8z"/>
<path d="M610 349 c0 -5 5 -7 10 -4 6 3 10 8 10 11 0 2 -4 4 -10 4 -5 0 -10
-5 -10 -11z"/>
<path d="M1480 350 c0 -5 5 -10 10 -10 6 0 10 5 10 10 0 6 -4 10 -10 10 -5 0
-10 -4 -10 -10z"/>
<path d="M600 310 c0 -5 7 -10 16 -10 8 0 12 5 9 10 -3 6 -10 10 -16 10 -5 0
-9 -4 -9 -10z"/>
<path d="M540 295 c0 -2 9 -9 20 -15 16 -9 18 -8 14 5 -5 13 -34 22 -34 10z"/>
</g>
</svg>
